<?xml version="1.0" encoding="utf-8"?>
<!-- Generator: Adobe Illustrator 13.0.0, SVG Export Plug-In . SVG Version: 6.00 Build 14948)  -->
<!DOCTYPE svg PUBLIC "-//W3C//DTD SVG 1.1//EN" "http://www.w3.org/Graphics/SVG/1.1/DTD/svg11.dtd">
<svg version="1.1" id="Layer_1" xmlns="http://www.w3.org/2000/svg" xmlns:xlink="http://www.w3.org/1999/xlink" x="0px" y="0px"
	 width="100px" height="80px" viewBox="0 0 100 80" enable-background="new 0 0 100 80" xml:space="preserve">
<g>
	<g>
		<g>
			<g>
				<defs>
					<path id="SVGID_1_" d="M43.532,56.003L24.519,36.989c-1.467-1.469-1.467-3.854,0-5.32l19.014-19.017
						c0.713-0.71,1.657-1.1,2.662-1.1s1.948,0.39,2.658,1.1L67.87,31.668c1.466,1.467,1.466,3.851,0,5.317L48.852,56.003
						c-0.707,0.71-1.654,1.1-2.658,1.1C45.186,57.103,44.243,56.713,43.532,56.003 M41.289,10.406L22.272,29.423
						c-2.705,2.705-2.705,7.104,0,9.809l19.017,19.018c1.351,1.351,3.126,2.026,4.905,2.026c1.775,0,3.553-0.676,4.905-2.026
						l19.014-19.018c1.354-1.351,2.029-3.129,2.029-4.904c0-1.776-0.676-3.554-2.029-4.905L51.099,10.406
						c-1.311-1.308-3.052-2.03-4.905-2.03S42.598,9.098,41.289,10.406"/>
				</defs>
				<clipPath id="SVGID_2_">
					<use xlink:href="#SVGID_1_"  overflow="visible"/>
				</clipPath>
				
					<linearGradient id="SVGID_3_" gradientUnits="userSpaceOnUse" x1="-504.4951" y1="102.7129" x2="-503.5387" y2="102.7129" gradientTransform="matrix(-14.8395 41.324 -41.324 -14.8395 -3188.7783 22384.9648)">
					<stop  offset="0" style="stop-color:#534B78"/>
					<stop  offset="0.243" style="stop-color:#463F65"/>
					<stop  offset="0.7317" style="stop-color:#302B44"/>
					<stop  offset="1" style="stop-color:#272338"/>
				</linearGradient>
				<polygon clip-path="url(#SVGID_2_)" fill="url(#SVGID_3_)" points="88.649,14.305 65.485,76.998 3.06,54.348 24.921,-8.346 				
					"/>
			</g>
		</g>
		<g>
			<g>
				<defs>
					<path id="SVGID_4_" d="M60.206,16.769c3.839-0.017,4.299,3.286,3.775,5.949c-1.011,5.141-5.728,8.245-13.594,14.888
						c-3.415,2.886-6.483,7.919-2.829,14.096c1.433-2.926,5.837-6.334,12.666-12.243c6.616-5.726,8.862-9.028,9.06-14.501
						c0.186-5.136-3.203-9.228-9.148-9.812L60.206,16.769z"/>
				</defs>
				<clipPath id="SVGID_5_">
					<use xlink:href="#SVGID_4_"  overflow="visible"/>
				</clipPath>
				
					<linearGradient id="SVGID_6_" gradientUnits="userSpaceOnUse" x1="-512.6616" y1="124.7832" x2="-511.6983" y2="124.7832" gradientTransform="matrix(21.7872 -22.8297 22.8297 21.7872 8366.0029 -14377.2129)">
					<stop  offset="0" style="stop-color:#C43AFF"/>
					<stop  offset="0.9812" style="stop-color:#34A5D6"/>
					<stop  offset="1" style="stop-color:#34A5D6"/>
				</linearGradient>
				<polygon clip-path="url(#SVGID_5_)" fill="url(#SVGID_6_)" points="25.647,34.277 56.091,2.377 87.728,32.569 56.633,64.47 				
					"/>
			</g>
		</g>
		<g>
			<g>
				<defs>
					<path id="SVGID_7_" d="M46.28,8.38c0.739,0.005,1.455,0.129,2.136,0.36c2.72-1.706,5.234-1.276,6.08,0.22
						c1.622,2.858-1.028,5.964-6.865,10.435C36.654,27.806,25.33,34.244,24.071,44.739c-1.334,11.119,9.71,17.452,17.201,13.492
						l-1.088-1.089c-4.673,1.96-9.197-1.737-8.527-7.228c0.814-6.66,10.594-11.645,21.25-20.885
						c10.661-9.237,9.102-17.623,5.521-20.988c-1.218-1.147-3.342-2.168-5.8-2.168C50.631,5.875,48.412,6.549,46.28,8.38"/>
				</defs>
				<clipPath id="SVGID_8_">
					<use xlink:href="#SVGID_7_"  overflow="visible"/>
				</clipPath>
				
					<linearGradient id="SVGID_9_" gradientUnits="userSpaceOnUse" x1="-511.8291" y1="120.2715" x2="-510.8755" y2="120.2715" gradientTransform="matrix(32.3066 -33.8523 33.8523 32.3066 12492.4336 -21162.748)">
					<stop  offset="0" style="stop-color:#C43AFF"/>
					<stop  offset="0.9812" style="stop-color:#34A5D6"/>
					<stop  offset="1" style="stop-color:#34A5D6"/>
				</linearGradient>
				<polygon clip-path="url(#SVGID_8_)" fill="url(#SVGID_9_)" points="-5.391,35.348 42.199,-14.519 91.696,32.718 44.106,82.586 
									"/>
			</g>
		</g>
		<g>
			<g>
				<defs>
					<path id="SVGID_10_" d="M63.934,17.438c1.382,1.679,1.156,4.133,0.896,5.447c-0.912,4.644-4.501,7.609-10.447,12.522
						c-1.09,0.899-2.215,1.829-3.437,2.861c-2.387,2.018-5.803,6.107-3.323,11.678c1.621-2.23,4.591-4.77,8.718-8.296
						c1.032-0.882,2.138-1.826,3.316-2.846c6.614-5.725,8.579-8.837,8.76-13.878c0.139-3.818-1.825-6.787-5.188-8.157
						C63.489,16.961,63.725,17.184,63.934,17.438"/>
				</defs>
				<clipPath id="SVGID_11_">
					<use xlink:href="#SVGID_10_"  overflow="visible"/>
				</clipPath>
				<defs>
					<filter id="Adobe_OpacityMaskFilter" filterUnits="userSpaceOnUse" x="33.704" y="8.695" width="41.301" height="49.323">
						<feColorMatrix  type="matrix" values="1 0 0 0 0  0 1 0 0 0  0 0 1 0 0  0 0 0 1 0"/>
					</filter>
				</defs>
				<mask maskUnits="userSpaceOnUse" x="33.704" y="8.695" width="41.301" height="49.323" id="SVGID_12_">
					<g filter="url(#Adobe_OpacityMaskFilter)">
						<g>
							<defs>
								<path id="SVGID_13_" d="M63.934,17.438c1.382,1.679,1.156,4.133,0.896,5.447c-0.912,4.644-4.501,7.609-10.447,12.522
									c-1.09,0.899-2.215,1.829-3.437,2.861c-2.387,2.018-5.803,6.107-3.323,11.678c1.621-2.23,4.591-4.77,8.718-8.296
									c1.032-0.882,2.138-1.826,3.316-2.846c6.614-5.725,8.579-8.837,8.76-13.878c0.139-3.818-1.825-6.787-5.188-8.157
									C63.489,16.961,63.725,17.184,63.934,17.438"/>
							</defs>
							<clipPath id="SVGID_14_" clip-path="url(#SVGID_11_)">
								<use xlink:href="#SVGID_13_"  overflow="visible"/>
							</clipPath>
							
								<linearGradient id="SVGID_15_" gradientUnits="userSpaceOnUse" x1="-491.1699" y1="123.1523" x2="-490.2167" y2="123.1523" gradientTransform="matrix(18.0409 7.2164 -7.2164 18.0409 9782.9648 1348.5208)">
								<stop  offset="0" style="stop-color:#FFFFFF"/>
								<stop  offset="0.026" style="stop-color:#F8F8F8"/>
								<stop  offset="0.5152" style="stop-color:#747474"/>
								<stop  offset="0.8489" style="stop-color:#212121"/>
								<stop  offset="1" style="stop-color:#000000"/>
							</linearGradient>
							<polygon clip-path="url(#SVGID_14_)" fill="url(#SVGID_15_)" points="43.381,8.695 75.005,21.345 60.335,58.019 
								28.711,45.369 							"/>
						</g>
					</g>
				</mask>
				
					<linearGradient id="SVGID_16_" gradientUnits="userSpaceOnUse" x1="-490.9316" y1="123.0566" x2="-489.9781" y2="123.0566" gradientTransform="matrix(18.0409 7.2164 -7.2164 18.0409 9782.9648 1348.5208)">
					<stop  offset="0" style="stop-color:#FFFFFF"/>
					<stop  offset="1" style="stop-color:#FFFFFF"/>
				</linearGradient>
				<polygon clip-path="url(#SVGID_11_)" mask="url(#SVGID_12_)" fill="url(#SVGID_16_)" points="48.373,8.695 75.005,21.345 
					65.328,58.019 33.704,45.369 				"/>
			</g>
		</g>
		<g>
			<g>
				<defs>
					<path id="SVGID_18_" d="M51.911,6.772c1.48,0.023,2.726,0.678,3.338,1.76c2.015,3.55-1.219,7.052-7.091,11.55
						c-1.797,1.377-3.612,2.708-5.367,3.995c-9.042,6.629-16.852,12.354-17.86,20.766c-0.444,3.703,0.574,7.166,2.868,9.751
						c2.198,2.479,5.412,3.958,8.595,3.957c0.255,0,0.507-0.009,0.757-0.027c-1.748-0.125-3.34-0.914-4.526-2.254
						c-1.482-1.675-2.131-3.968-1.827-6.46c0.618-5.056,5.901-9.112,12.589-14.248c2.733-2.099,5.83-4.477,8.956-7.186
						c6.424-5.567,7.845-10.36,7.905-13.4c0.052-2.517-0.828-4.814-2.412-6.303c-0.993-0.934-2.882-1.933-5.206-1.933
						C52.388,6.74,52.148,6.75,51.911,6.772"/>
				</defs>
				<clipPath id="SVGID_19_">
					<use xlink:href="#SVGID_18_"  overflow="visible"/>
				</clipPath>
				<defs>
					<filter id="Adobe_OpacityMaskFilter_1_" filterUnits="userSpaceOnUse" x="13.731" y="-0.694" width="57.321" height="66.678">
						<feColorMatrix  type="matrix" values="1 0 0 0 0  0 1 0 0 0  0 0 1 0 0  0 0 0 1 0"/>
					</filter>
				</defs>
				<mask maskUnits="userSpaceOnUse" x="13.731" y="-0.694" width="57.321" height="66.678" id="SVGID_17_">
					<g filter="url(#Adobe_OpacityMaskFilter_1_)">
						<g>
							<defs>
								<path id="SVGID_20_" d="M51.911,6.772c1.48,0.023,2.726,0.678,3.338,1.76c2.015,3.55-1.219,7.052-7.091,11.55
									c-1.797,1.377-3.612,2.708-5.367,3.995c-9.042,6.629-16.852,12.354-17.86,20.766c-0.444,3.703,0.574,7.166,2.868,9.751
									c2.198,2.479,5.412,3.958,8.595,3.957c0.255,0,0.507-0.009,0.757-0.027c-1.748-0.125-3.34-0.914-4.526-2.254
									c-1.482-1.675-2.131-3.968-1.827-6.46c0.618-5.056,5.901-9.112,12.589-14.248c2.733-2.099,5.83-4.477,8.956-7.186
									c6.424-5.567,7.845-10.36,7.905-13.4c0.052-2.517-0.828-4.814-2.412-6.303c-0.993-0.934-2.882-1.933-5.206-1.933
									C52.388,6.74,52.148,6.75,51.911,6.772"/>
							</defs>
							<clipPath id="SVGID_21_" clip-path="url(#SVGID_19_)">
								<use xlink:href="#SVGID_20_"  overflow="visible"/>
							</clipPath>
							
								<linearGradient id="SVGID_23_" gradientUnits="userSpaceOnUse" x1="-500.5259" y1="119.8047" x2="-499.5724" y2="119.8047" gradientTransform="matrix(32.7963 7.1296 -7.1296 32.7963 17266.2383 -336.1501)">
								<stop  offset="0" style="stop-color:#FFFFFF"/>
								<stop  offset="0.026" style="stop-color:#F8F8F8"/>
								<stop  offset="0.5152" style="stop-color:#747474"/>
								<stop  offset="0.8489" style="stop-color:#212121"/>
								<stop  offset="1" style="stop-color:#000000"/>
							</linearGradient>
							<polygon clip-path="url(#SVGID_21_)" fill="url(#SVGID_23_)" points="18.108,-0.694 63.06,9.078 50.688,65.984 5.737,56.212 
															"/>
						</g>
					</g>
				</mask>
				
					<linearGradient id="SVGID_24_" gradientUnits="userSpaceOnUse" x1="-500.4604" y1="119.7754" x2="-499.4237" y2="119.7754" gradientTransform="matrix(32.7963 7.1296 -7.1296 32.7963 17266.4414 -335.9328)">
					<stop  offset="0" style="stop-color:#FFFFFF"/>
					<stop  offset="1" style="stop-color:#FFFFFF"/>
				</linearGradient>
				<polygon clip-path="url(#SVGID_19_)" mask="url(#SVGID_17_)" fill="url(#SVGID_24_)" points="21.979,-0.694 71.053,9.078 
					50.688,65.984 13.731,56.212 				"/>
			</g>
		</g>
		<g>
			<g>
				<defs>
					<path id="SVGID_25_" d="M63.934,17.438c1.382,1.679,1.156,4.133,0.896,5.447c-0.912,4.644-4.501,7.609-10.447,12.522
						c-1.09,0.899-2.215,1.829-3.437,2.861c-2.387,2.018-5.803,6.107-3.323,11.678c1.621-2.23,4.591-4.77,8.718-8.296
						c1.032-0.882,2.138-1.826,3.316-2.846c6.614-5.725,8.579-8.837,8.76-13.878c0.139-3.818-1.825-6.787-5.188-8.157
						C63.489,16.961,63.725,17.184,63.934,17.438"/>
				</defs>
				<clipPath id="SVGID_26_">
					<use xlink:href="#SVGID_25_"  overflow="visible"/>
				</clipPath>
				<defs>
					<filter id="Adobe_OpacityMaskFilter_2_" filterUnits="userSpaceOnUse" x="43.126" y="15.345" width="27.448" height="36.025">
						<feColorMatrix  type="matrix" values="1 0 0 0 0  0 1 0 0 0  0 0 1 0 0  0 0 0 1 0"/>
					</filter>
				</defs>
				<mask maskUnits="userSpaceOnUse" x="43.126" y="15.345" width="27.448" height="36.025" id="SVGID_22_">
					<g filter="url(#Adobe_OpacityMaskFilter_2_)">
						<g>
							<defs>
								<path id="SVGID_28_" d="M63.934,17.438c1.382,1.679,1.156,4.133,0.896,5.447c-0.912,4.644-4.501,7.609-10.447,12.522
									c-1.09,0.899-2.215,1.829-3.437,2.861c-2.387,2.018-5.803,6.107-3.323,11.678c1.621-2.23,4.591-4.77,8.718-8.296
									c1.032-0.882,2.138-1.826,3.316-2.846c6.614-5.725,8.579-8.837,8.76-13.878c0.139-3.818-1.825-6.787-5.188-8.157
									C63.489,16.961,63.725,17.184,63.934,17.438"/>
							</defs>
							<clipPath id="SVGID_29_" clip-path="url(#SVGID_26_)">
								<use xlink:href="#SVGID_28_"  overflow="visible"/>
							</clipPath>
							
								<linearGradient id="SVGID_30_" gradientUnits="userSpaceOnUse" x1="-522.8354" y1="95.541" x2="-521.8822" y2="95.541" gradientTransform="matrix(-21.9508 -1.3397 1.3397 -21.9508 -11518.834 1431.8918)">
								<stop  offset="0" style="stop-color:#FFFFFF"/>
								<stop  offset="0.026" style="stop-color:#F8F8F8"/>
								<stop  offset="0.5152" style="stop-color:#747474"/>
								<stop  offset="0.8489" style="stop-color:#212121"/>
								<stop  offset="1" style="stop-color:#000000"/>
							</linearGradient>
							<polygon clip-path="url(#SVGID_29_)" fill="url(#SVGID_30_)" points="68.47,51.37 43.126,49.822 45.231,15.345 
								70.574,16.892 							"/>
						</g>
					</g>
				</mask>
				
					<linearGradient id="SVGID_31_" gradientUnits="userSpaceOnUse" x1="-522.8345" y1="95.542" x2="-521.8812" y2="95.542" gradientTransform="matrix(-21.9508 -1.3397 1.3397 -21.9508 -11518.834 1431.9075)">
					<stop  offset="0" style="stop-color:#FFFFFF"/>
					<stop  offset="1" style="stop-color:#FFFFFF"/>
				</linearGradient>
				<polygon clip-path="url(#SVGID_26_)" mask="url(#SVGID_22_)" fill="url(#SVGID_31_)" points="68.47,51.37 43.126,49.822 
					45.231,15.345 70.574,16.892 				"/>
			</g>
		</g>
		<g>
			<g>
				<defs>
					<path id="SVGID_33_" d="M51.911,6.772c1.48,0.023,2.726,0.678,3.338,1.76c2.015,3.55-1.219,7.052-7.091,11.55
						c-1.797,1.377-3.612,2.708-5.367,3.995c-9.042,6.629-16.852,12.354-17.86,20.766c-0.444,3.703,0.574,7.166,2.868,9.751
						c2.198,2.479,5.412,3.958,8.595,3.957c0.255,0,0.507-0.009,0.757-0.027c-1.748-0.125-3.34-0.914-4.526-2.254
						c-1.482-1.675-2.131-3.968-1.827-6.46c0.618-5.056,5.901-9.112,12.589-14.248c2.733-2.099,5.83-4.477,8.956-7.186
						c6.424-5.567,7.845-10.36,7.905-13.4c0.052-2.517-0.828-4.814-2.412-6.303c-0.993-0.934-2.882-1.933-5.206-1.933
						C52.388,6.74,52.148,6.75,51.911,6.772"/>
				</defs>
				<clipPath id="SVGID_34_">
					<use xlink:href="#SVGID_33_"  overflow="visible"/>
				</clipPath>
				<defs>
					<filter id="Adobe_OpacityMaskFilter_3_" filterUnits="userSpaceOnUse" x="12.979" y="-1.214" width="58.828" height="67.72">
						<feColorMatrix  type="matrix" values="1 0 0 0 0  0 1 0 0 0  0 0 1 0 0  0 0 0 1 0"/>
					</filter>
				</defs>
				<mask maskUnits="userSpaceOnUse" x="12.979" y="-1.214" width="58.828" height="67.72" id="SVGID_27_">
					<g filter="url(#Adobe_OpacityMaskFilter_3_)">
						<g>
							<defs>
								<path id="SVGID_35_" d="M51.911,6.772c1.48,0.023,2.726,0.678,3.338,1.76c2.015,3.55-1.219,7.052-7.091,11.55
									c-1.797,1.377-3.612,2.708-5.367,3.995c-9.042,6.629-16.852,12.354-17.86,20.766c-0.444,3.703,0.574,7.166,2.868,9.751
									c2.198,2.479,5.412,3.958,8.595,3.957c0.255,0,0.507-0.009,0.757-0.027c-1.748-0.125-3.34-0.914-4.526-2.254
									c-1.482-1.675-2.131-3.968-1.827-6.46c0.618-5.056,5.901-9.112,12.589-14.248c2.733-2.099,5.83-4.477,8.956-7.186
									c6.424-5.567,7.845-10.36,7.905-13.4c0.052-2.517-0.828-4.814-2.412-6.303c-0.993-0.934-2.882-1.933-5.206-1.933
									C52.388,6.74,52.148,6.75,51.911,6.772"/>
							</defs>
							<clipPath id="SVGID_36_" clip-path="url(#SVGID_34_)">
								<use xlink:href="#SVGID_35_"  overflow="visible"/>
							</clipPath>
							
								<linearGradient id="SVGID_38_" gradientUnits="userSpaceOnUse" x1="-523.0034" y1="99.5293" x2="-522.0496" y2="99.5293" gradientTransform="matrix(-24.6303 -5.7711 5.7711 -24.6303 -13389.5615 -526.699)">
								<stop  offset="0" style="stop-color:#FFFFFF"/>
								<stop  offset="0.026" style="stop-color:#F8F8F8"/>
								<stop  offset="0.5152" style="stop-color:#747474"/>
								<stop  offset="0.8489" style="stop-color:#212121"/>
								<stop  offset="1" style="stop-color:#000000"/>
							</linearGradient>
							<polygon clip-path="url(#SVGID_36_)" fill="url(#SVGID_38_)" points="50.44,66.506 4.984,55.854 18.355,-1.214 63.812,9.437 
															"/>
						</g>
					</g>
				</mask>
				
					<linearGradient id="SVGID_39_" gradientUnits="userSpaceOnUse" x1="-523.3105" y1="99.5938" x2="-522.3568" y2="99.5938" gradientTransform="matrix(-24.6303 -5.7711 5.7711 -24.6303 -13389.5615 -526.7146)">
					<stop  offset="0" style="stop-color:#FFFFFF"/>
					<stop  offset="1" style="stop-color:#FFFFFF"/>
				</linearGradient>
				<polygon clip-path="url(#SVGID_34_)" mask="url(#SVGID_27_)" fill="url(#SVGID_39_)" points="56.915,66.506 12.979,55.854 
					26.35,-1.214 71.807,9.437 				"/>
			</g>
		</g>
		<g>
			<g>
				<defs>
					<path id="SVGID_40_" d="M43.042,56.493L24.027,37.479c-1.736-1.739-1.735-4.566,0-6.301L43.042,12.16
						c0.843-0.84,1.962-1.303,3.152-1.303s2.309,0.463,3.148,1.304l19.017,19.017c0.842,0.84,1.304,1.958,1.304,3.149
						c0,1.19-0.462,2.309-1.304,3.149L49.344,56.493c-0.837,0.841-1.956,1.304-3.149,1.304
						C45.002,57.796,43.882,57.334,43.042,56.493 M41.78,10.897L22.763,29.914c-1.177,1.177-1.825,2.745-1.825,4.414
						c0,1.669,0.648,3.236,1.825,4.413L41.78,57.758c1.176,1.176,2.744,1.823,4.415,1.823c1.67,0,3.237-0.647,4.413-1.823
						L69.622,38.74c1.178-1.175,1.825-2.742,1.825-4.413c0-1.672-0.647-3.239-1.826-4.414L50.607,10.897
						c-1.18-1.178-2.748-1.827-4.414-1.827C44.525,9.071,42.958,9.719,41.78,10.897"/>
				</defs>
				<clipPath id="SVGID_41_">
					<use xlink:href="#SVGID_40_"  overflow="visible"/>
				</clipPath>
				<defs>
					<filter id="Adobe_OpacityMaskFilter_4_" filterUnits="userSpaceOnUse" x="7.69" y="-4.177" width="77.005" height="77.005">
						<feColorMatrix  type="matrix" values="1 0 0 0 0  0 1 0 0 0  0 0 1 0 0  0 0 0 1 0"/>
					</filter>
				</defs>
				<mask maskUnits="userSpaceOnUse" x="7.69" y="-4.177" width="77.005" height="77.005" id="SVGID_32_">
					<g filter="url(#Adobe_OpacityMaskFilter_4_)">
						<g>
							<defs>
								<path id="SVGID_42_" d="M43.042,56.493L24.027,37.479c-1.736-1.739-1.735-4.566,0-6.301L43.042,12.16
									c0.843-0.84,1.962-1.303,3.152-1.303s2.309,0.463,3.148,1.304l19.017,19.017c0.842,0.84,1.304,1.958,1.304,3.149
									c0,1.19-0.462,2.309-1.304,3.149L49.344,56.493c-0.837,0.841-1.956,1.304-3.149,1.304
									C45.002,57.796,43.882,57.334,43.042,56.493 M41.78,10.897L22.763,29.914c-1.177,1.177-1.825,2.745-1.825,4.414
									c0,1.669,0.648,3.236,1.825,4.413L41.78,57.758c1.176,1.176,2.744,1.823,4.415,1.823c1.67,0,3.237-0.647,4.413-1.823
									L69.622,38.74c1.178-1.175,1.825-2.742,1.825-4.413c0-1.672-0.647-3.239-1.826-4.414L50.607,10.897
									c-1.18-1.178-2.748-1.827-4.414-1.827C44.525,9.071,42.958,9.719,41.78,10.897"/>
							</defs>
							<clipPath id="SVGID_43_" clip-path="url(#SVGID_41_)">
								<use xlink:href="#SVGID_42_"  overflow="visible"/>
							</clipPath>
							
								<linearGradient id="SVGID_44_" gradientUnits="userSpaceOnUse" x1="-498.1826" y1="120.6309" x2="-497.229" y2="120.6309" gradientTransform="matrix(27.4029 7.7642 -7.7642 27.4029 14580.7012 583.6843)">
								<stop  offset="0" style="stop-color:#FFFFFF"/>
								<stop  offset="0.3227" style="stop-color:#A9A9A9"/>
								<stop  offset="0.7923" style="stop-color:#303030"/>
								<stop  offset="1" style="stop-color:#000000"/>
							</linearGradient>
							<polygon clip-path="url(#SVGID_43_)" fill="url(#SVGID_44_)" points="16.697,-4.177 76.701,12.824 59.7,72.828 
								-0.304,55.827 							"/>
						</g>
					</g>
				</mask>
				
					<linearGradient id="SVGID_45_" gradientUnits="userSpaceOnUse" x1="-497.9136" y1="120.5566" x2="-496.9599" y2="120.5566" gradientTransform="matrix(27.4029 7.7642 -7.7642 27.4029 14580.7012 583.7156)">
					<stop  offset="0" style="stop-color:#FFFFFF"/>
					<stop  offset="1" style="stop-color:#FFFFFF"/>
				</linearGradient>
				<polygon clip-path="url(#SVGID_41_)" mask="url(#SVGID_32_)" fill="url(#SVGID_45_)" points="24.691,-4.177 84.695,12.824 
					67.043,72.828 7.69,55.827 				"/>
			</g>
		</g>
		<g>
			<g>
				<defs>
					<path id="SVGID_46_" d="M43.042,56.493L24.027,37.479c-1.736-1.739-1.735-4.566,0-6.301L43.042,12.16
						c0.843-0.84,1.962-1.303,3.152-1.303s2.309,0.463,3.148,1.304l19.017,19.017c0.842,0.84,1.304,1.958,1.304,3.149
						c0,1.19-0.462,2.309-1.304,3.149L49.344,56.493c-0.837,0.841-1.956,1.304-3.149,1.304
						C45.002,57.796,43.882,57.334,43.042,56.493 M41.78,10.897L22.763,29.914c-1.177,1.177-1.825,2.745-1.825,4.414
						c0,1.669,0.648,3.236,1.825,4.413L41.78,57.758c1.176,1.176,2.744,1.823,4.415,1.823c1.67,0,3.237-0.647,4.413-1.823
						L69.622,38.74c1.178-1.175,1.825-2.742,1.825-4.413c0-1.672-0.647-3.239-1.826-4.414L50.607,10.897
						c-1.18-1.178-2.748-1.827-4.414-1.827C44.525,9.071,42.958,9.719,41.78,10.897"/>
				</defs>
				<clipPath id="SVGID_47_">
					<use xlink:href="#SVGID_46_"  overflow="visible"/>
				</clipPath>
				<defs>
					<filter id="Adobe_OpacityMaskFilter_5_" filterUnits="userSpaceOnUse" x="14.092" y="2.225" width="64.202" height="64.202">
						<feColorMatrix  type="matrix" values="1 0 0 0 0  0 1 0 0 0  0 0 1 0 0  0 0 0 1 0"/>
					</filter>
				</defs>
				<mask maskUnits="userSpaceOnUse" x="14.092" y="2.225" width="64.202" height="64.202" id="SVGID_37_">
					<g filter="url(#Adobe_OpacityMaskFilter_5_)">
						<g>
							<defs>
								<path id="SVGID_48_" d="M43.042,56.493L24.027,37.479c-1.736-1.739-1.735-4.566,0-6.301L43.042,12.16
									c0.843-0.84,1.962-1.303,3.152-1.303s2.309,0.463,3.148,1.304l19.017,19.017c0.842,0.84,1.304,1.958,1.304,3.149
									c0,1.19-0.462,2.309-1.304,3.149L49.344,56.493c-0.837,0.841-1.956,1.304-3.149,1.304
									C45.002,57.796,43.882,57.334,43.042,56.493 M41.78,10.897L22.763,29.914c-1.177,1.177-1.825,2.745-1.825,4.414
									c0,1.669,0.648,3.236,1.825,4.413L41.78,57.758c1.176,1.176,2.744,1.823,4.415,1.823c1.67,0,3.237-0.647,4.413-1.823
									L69.622,38.74c1.178-1.175,1.825-2.742,1.825-4.413c0-1.672-0.647-3.239-1.826-4.414L50.607,10.897
									c-1.18-1.178-2.748-1.827-4.414-1.827C44.525,9.071,42.958,9.719,41.78,10.897"/>
							</defs>
							<clipPath id="SVGID_49_" clip-path="url(#SVGID_47_)">
								<use xlink:href="#SVGID_48_"  overflow="visible"/>
							</clipPath>
							
								<linearGradient id="SVGID_50_" gradientUnits="userSpaceOnUse" x1="-521.9355" y1="98.3066" x2="-520.9819" y2="98.3066" gradientTransform="matrix(-24.8782 -3.4362 3.4362 -24.8782 -13239.752 692.7032)">
								<stop  offset="0" style="stop-color:#FFFFFF"/>
								<stop  offset="0.1243" style="stop-color:#E6E6E6"/>
								<stop  offset="0.3887" style="stop-color:#A6A6A6"/>
								<stop  offset="0.7687" style="stop-color:#414141"/>
								<stop  offset="1" style="stop-color:#000000"/>
							</linearGradient>
							<polygon clip-path="url(#SVGID_49_)" fill="url(#SVGID_50_)" points="62.508,66.427 6.098,58.636 13.889,2.225 
								70.299,10.016 							"/>
						</g>
					</g>
				</mask>
				<polygon clip-path="url(#SVGID_47_)" mask="url(#SVGID_37_)" fill="#915050" points="67.499,66.427 14.092,58.636 21.884,2.225 
					78.294,10.016 				"/>
			</g>
		</g>
	</g>
</g>
<g>
	<path fill="#1D1D21" d="M2.254,73.609v-7.562h3.215c1.113,0,1.958,0.176,2.534,0.526c0.576,0.353,0.864,0.867,0.864,1.546
		c0,0.371-0.115,0.697-0.347,0.979c-0.231,0.281-0.553,0.488-0.964,0.62c0.471,0.097,0.841,0.293,1.113,0.586
		c0.271,0.295,0.407,0.655,0.407,1.081c0,0.727-0.282,1.277-0.845,1.65c-0.563,0.374-1.366,0.564-2.408,0.572H2.254z M4.146,69.216
		h1.399c0.954-0.014,1.431-0.327,1.431-0.939c0-0.343-0.121-0.59-0.363-0.741c-0.242-0.149-0.623-0.225-1.144-0.225H4.146V69.216z
		 M4.146,70.316v2.041h1.62c0.445,0,0.793-0.088,1.043-0.263s0.375-0.415,0.375-0.725c0-0.691-0.435-1.043-1.305-1.054H4.146z"/>
	<path fill="#1D1D21" d="M13.891,70.842h-1.507v2.768h-1.891v-7.562h3.411c1.084,0,1.92,0.199,2.508,0.598
		c0.589,0.398,0.883,0.961,0.883,1.688c0,0.516-0.136,0.946-0.406,1.29c-0.271,0.345-0.682,0.619-1.232,0.823l1.986,3.09v0.073
		h-2.03L13.891,70.842z M12.384,69.579h1.525c0.475,0,0.843-0.099,1.103-0.299c0.261-0.199,0.391-0.473,0.391-0.823
		c0-0.356-0.123-0.637-0.369-0.842c-0.246-0.202-0.623-0.305-1.131-0.305h-1.52V69.579z"/>
	<path fill="#1D1D21" d="M23.914,72.051h-3.316l-0.63,1.559h-2.011l3.417-7.562h1.752l3.436,7.562H24.55L23.914,72.051z
		 M21.109,70.789h2.294l-1.154-2.83L21.109,70.789z"/>
	<path fill="#1D1D21" d="M34.882,73.609h-1.891l-3.682-4.975v4.975h-1.891v-7.562h1.891l3.688,4.985v-4.985h1.885V73.609
		L34.882,73.609z"/>
	<path fill="#1D1D21" d="M36.534,73.609v-7.562h2.824c0.807,0,1.528,0.15,2.165,0.448c0.637,0.3,1.134,0.727,1.491,1.278
		c0.357,0.553,0.536,1.181,0.536,1.883v0.348c0,0.702-0.176,1.328-0.526,1.875c-0.351,0.546-0.846,0.971-1.485,1.272
		c-0.639,0.301-1.359,0.453-2.162,0.457H36.534z M38.425,67.311v5.047h0.914c0.74,0,1.305-0.199,1.695-0.597
		c0.391-0.397,0.591-0.968,0.599-1.709v-0.399c0-0.769-0.193-1.352-0.58-1.748c-0.387-0.396-0.952-0.594-1.696-0.594H38.425z"/>
	<path fill="#1D1D21" d="M54.67,67.311h-2.813v6.299h-1.891v-6.299h-2.773v-1.263h7.477V67.311z"/>
	<path fill="#1D1D21" d="M61.27,70.332h-3.632v2.025h4.262v1.252h-6.151v-7.562h6.138v1.263h-4.248v1.801h3.632V70.332z"/>
	<path fill="#1D1D21" d="M70.214,71.09c-0.071,0.814-0.436,1.454-1.094,1.922c-0.658,0.467-1.523,0.701-2.601,0.701
		c-1.176,0-2.103-0.326-2.776-0.979c-0.675-0.651-1.012-1.548-1.012-2.688v-0.462c0-0.727,0.155-1.367,0.467-1.922
		c0.311-0.553,0.755-0.979,1.333-1.273c0.578-0.297,1.249-0.445,2.015-0.445c1.059,0,1.912,0.234,2.559,0.701
		c0.646,0.468,1.021,1.124,1.122,1.969h-1.891c-0.047-0.489-0.212-0.843-0.496-1.063c-0.283-0.22-0.715-0.33-1.294-0.33
		c-0.632,0-1.103,0.187-1.415,0.559c-0.313,0.372-0.476,0.949-0.482,1.732v0.57c0,0.817,0.149,1.415,0.45,1.792
		c0.3,0.377,0.774,0.565,1.421,0.565c0.585,0,1.021-0.11,1.309-0.33s0.452-0.56,0.494-1.021L70.214,71.09L70.214,71.09z"/>
	<path fill="#1D1D21" d="M78.925,73.609h-1.89v-3.241h-3.688v3.241h-1.892v-7.562h1.892v3.063h3.688v-3.063h1.89V73.609z"/>
	<path fill="#1D1D21" d="M88.041,73.609h-1.892l-3.681-4.975v4.975h-1.892v-7.562h1.892l3.688,4.985v-4.985h1.885V73.609
		L88.041,73.609z"/>
	<path fill="#1D1D21" d="M97.231,70c0,0.744-0.159,1.396-0.479,1.958c-0.319,0.561-0.776,0.993-1.371,1.298
		c-0.594,0.305-1.276,0.457-2.045,0.457c-0.762,0-1.439-0.15-2.036-0.452s-1.059-0.731-1.387-1.291
		c-0.328-0.559-0.494-1.201-0.498-1.929v-0.373c0-0.745,0.163-1.4,0.489-1.967c0.324-0.566,0.784-1,1.38-1.304
		c0.594-0.302,1.273-0.454,2.039-0.454c0.765,0,1.444,0.152,2.039,0.454c0.595,0.304,1.055,0.737,1.38,1.304
		c0.326,0.566,0.489,1.22,0.489,1.961V70L97.231,70z M95.315,69.657c0-0.793-0.173-1.396-0.518-1.807
		c-0.344-0.412-0.836-0.618-1.475-0.618c-0.635,0-1.125,0.203-1.47,0.61c-0.344,0.406-0.519,1.002-0.523,1.788V70
		c0,0.772,0.174,1.37,0.519,1.797c0.344,0.426,0.84,0.639,1.486,0.639c0.635,0,1.122-0.205,1.463-0.615
		c0.34-0.411,0.513-1.009,0.518-1.795V69.657L95.315,69.657z"/>
</g>
</svg>
