<?xml version="1.0" encoding="utf-8"?>
<!-- Generator: Adobe Illustrator 13.0.0, SVG Export Plug-In . SVG Version: 6.00 Build 14948)  -->
<!DOCTYPE svg PUBLIC "-//W3C//DTD SVG 1.1//EN" "http://www.w3.org/Graphics/SVG/1.1/DTD/svg11.dtd">
<svg version="1.1" id="Layer_1" xmlns="http://www.w3.org/2000/svg" xmlns:xlink="http://www.w3.org/1999/xlink" x="0px" y="0px"
	 width="40px" height="40px" viewBox="0 0 512 512" enable-background="new 0 0 512 512" xml:space="preserve">
<g id="Creative_cloud_cloud_computing_floder_gear">
	<path fill="#F54E2F" d="M488,184c4.418,0,8-3.582,8-8v-48c0-4.418-3.582-8-8-8h-30l-1.44-3.36l21.28-21.2
		c3.12-3.144,3.12-8.216,0-11.36l-33.92-33.92c-3.208-2.96-8.151-2.96-11.359,0l-21.2,21.28L408,70V40c0-4.418-3.582-8-8-8h-48
		c-4.418,0-8,3.582-8,8v30l-3.36,1.44L319.44,50.16c-3.209-2.96-8.152-2.96-11.36,0l-5.84,5.92
		c-8.467,0.194-16.834,1.874-24.721,4.96c-32.472-47.265-97.111-59.258-144.376-26.786C111.567,49.077,96.387,71.502,90.64,97.04
		c-48.027,7.45-80.921,52.422-73.472,100.449C23.813,240.321,60.656,271.937,104,272h168v184c0,4.418,3.582,8,8,8h153.12
		c4.418,17.112,21.872,27.402,38.983,22.983c17.112-4.418,27.402-21.871,22.984-38.983s-21.872-27.402-38.984-22.983
		c-11.271,2.91-20.073,11.712-22.983,22.983H288V272h80v56c0,4.418,3.582,8,8,8h57.12c4.418,17.111,21.872,27.402,38.983,22.984
		c17.112-4.419,27.402-21.873,22.984-38.984s-21.872-27.402-38.984-22.984c-11.271,2.91-20.073,11.713-22.983,22.984H384v-48h16
		c4.418,0,8-3.582,8-8v-30l3.36-1.44l21.199,21.28c3.209,2.961,8.152,2.961,11.36,0l33.92-33.92c3.12-3.144,3.12-8.216,0-11.36
		l-21.28-21.2L458,184H488z M464,440c8.837,0,16,7.163,16,16s-7.163,16-16,16s-16-7.163-16-16
		C448.026,447.175,455.175,440.026,464,440z M464,312c8.837,0,16,7.164,16,16s-7.163,16-16,16s-16-7.164-16-16
		C448.026,319.174,455.175,312.026,464,312z M104,256c-39.762-0.409-71.665-32.974-71.256-72.736
		C33.124,146.396,61.292,115.771,98,112.32c3.678-0.312,6.675-3.079,7.28-6.72c7.873-47.878,53.069-80.31,100.947-72.437
		c25.717,4.229,48.229,19.657,61.453,42.117c2.157,3.653,6.791,4.987,10.561,3.04c1.039-0.56,2.08-0.96,3.199-1.44l-7.279,7.2
		c-3.12,3.144-3.12,8.216,0,11.36l21.279,21.2L294,120h-30c-4.418,0-8,3.582-8,8v48c0,4.418,3.582,8,8,8h30l1.439,3.36l-21.279,21.2
		c-3.12,3.144-3.12,8.216,0,11.36l33.92,33.92c1.444,1.33,3.318,2.096,5.28,2.16H104z M344,256h-29.84
		c1.962-0.064,3.836-0.831,5.28-2.16l21.199-21.28L344,234V256z M441.28,194.64l19.6,19.6l-22.64,22.64l-19.601-19.6
		c-2.456-2.5-6.265-3.086-9.359-1.44c-3.753,1.945-7.659,3.577-11.681,4.88c-3.342,1.016-5.619,4.107-5.6,7.6V256h-32v-27.68
		c0.02-3.493-2.258-6.584-5.6-7.6c-4.021-1.303-7.928-2.935-11.681-4.88c-3.095-1.646-6.903-1.06-9.359,1.44l-19.601,19.6
		l-22.64-22.64l19.6-19.6c2.501-2.457,3.087-6.266,1.44-9.36c-1.917-3.766-3.548-7.67-4.88-11.68c-1.017-3.342-4.106-5.62-7.601-5.6
		H272v-32h27.68c3.494,0.02,6.584-2.258,7.601-5.6c1.332-4.01,2.963-7.914,4.88-11.68c1.646-3.094,1.061-6.903-1.44-9.36l-19.6-19.6
		l22.64-22.64l19.601,19.6c2.47,2.474,6.26,3.057,9.359,1.44c3.753-1.945,7.659-3.577,11.681-4.88c3.342-1.016,5.619-4.107,5.6-7.6
		V48h32v27.68c-0.02,3.493,2.258,6.584,5.6,7.6c4.021,1.303,7.928,2.935,11.681,4.88c3.1,1.616,6.89,1.033,9.359-1.44l19.601-19.6
		l22.64,22.64l-19.6,19.6c-2.501,2.457-3.087,6.266-1.44,9.36c1.917,3.766,3.548,7.67,4.88,11.68c1.016,3.342,4.107,5.62,7.601,5.6
		H480v32h-27.68c-3.493-0.02-6.585,2.258-7.601,5.6c-1.332,4.01-2.963,7.914-4.88,11.68
		C438.193,188.375,438.779,192.184,441.28,194.64z"/>
	<path fill="#F54E2F" d="M216,352h-8v-8c-0.04-13.238-10.762-23.961-24-24h-80c-4.418,0-8-3.582-8-8
		c-0.04-13.238-10.762-23.961-24-24H40c-13.238,0.039-23.96,10.762-24,24v160c0.04,13.238,10.762,23.961,24,24h176
		c13.238-0.039,23.96-10.762,24-24v-96C239.96,362.762,229.238,352.039,216,352z M49.44,480H40c-4.418,0-8-3.582-8-8V312
		c0-4.418,3.582-8,8-8h32c4.418,0,8,3.582,8,8c0.04,13.238,10.762,23.961,24,24h80c4.418,0,8,3.582,8,8v8H72
		c-13.238,0.039-23.96,10.762-24,24v96C48.021,474.729,48.509,477.435,49.44,480z M224,472c0,4.418-3.582,8-8,8H72
		c-4.418,0-8-3.582-8-8v-96c0-4.418,3.582-8,8-8h144c4.418,0,8,3.582,8,8V472z"/>
	<path fill="#F54E2F" d="M64,184c0.103-20.744,15.991-37.994,36.656-39.8l-1.313-15.944c-30.789,2.932-53.371,30.268-50.439,61.057
		C51.618,217.805,75.38,239.667,104,240v-16C81.919,223.974,64.026,206.081,64,184z"/>
	<rect x="120" y="224" fill="#F54E2F" width="32" height="16"/>
	<path fill="#F54E2F" d="M376,96c-30.928,0-56,25.072-56,56s25.072,56,56,56s56-25.072,56-56C431.965,121.087,406.913,96.035,376,96
		z M376,192c-22.092,0-40-17.909-40-40s17.908-40,40-40s40,17.909,40,40C415.974,174.081,398.08,191.974,376,192z"/>
</g>
</svg>
