<?xml version="1.0" encoding="utf-8"?>
<!-- Generator: Adobe Illustrator 13.0.0, SVG Export Plug-In . SVG Version: 6.00 Build 14948)  -->
<!DOCTYPE svg PUBLIC "-//W3C//DTD SVG 1.1//EN" "http://www.w3.org/Graphics/SVG/1.1/DTD/svg11.dtd">
<svg version="1.1" id="Layer_2" xmlns="http://www.w3.org/2000/svg" xmlns:xlink="http://www.w3.org/1999/xlink" x="0px" y="0px"
	 width="50.844px" height="50.031px" viewBox="4.5 2 50.844 50.031" enable-background="new 4.5 2 50.844 50.031"
	 xml:space="preserve">
<path fill="#FD6A45" d="M55.358,40.02c0,6.627-5.372,12-12,12H16.525c-6.627,0-12-5.373-12-12v-26c0-6.627,5.373-12,12-12h26.833
	c6.628,0,12,5.373,12,12V40.02z"/>
<g id="Layer_3">
	<path fill="#D23811" d="M40.547,16.016l14.792,18.542v5.677c0,0-0.073,11.188-11.979,11.781c-1.031,0-9.938,0-9.938,0
		L18.984,37.641l-3.406-10.984l1.469-4.766l1.375-3.375l2.125-2.5l2.5-2l2.75-1l3.75-0.875l3.25,0.625l2.5,0.75l1.375,1
		L40.547,16.016z"/>
</g>
<path fill="#FFFFFF" d="M29.942,11.77c-8.408,0-15.251,6.841-15.251,15.25c0,8.41,6.843,15.25,15.251,15.25
	c8.41,0,15.25-6.84,15.25-15.25C45.192,18.61,38.351,11.77,29.942,11.77L29.942,11.77z M16.532,27.916h5.27
	c0.077,1.837,0.379,3.645,0.92,5.384h-4.669C17.189,31.674,16.657,29.85,16.532,27.916z M21.802,26.123h-5.27
	c0.125-1.934,0.657-3.757,1.521-5.383h4.665C22.177,22.478,21.879,24.286,21.802,26.123z M24.616,20.74h10.58
	c0.592,1.731,0.935,3.539,1.02,5.383H23.597C23.677,24.279,24.023,22.471,24.616,20.74z M23.597,27.916h12.621
	c-0.089,1.844-0.435,3.651-1.026,5.384h-10.57C24.028,31.567,23.68,29.76,23.597,27.916z M38.013,27.916h5.342
	c-0.128,1.934-0.657,3.758-1.519,5.384h-4.745C37.633,31.561,37.932,29.753,38.013,27.916z M38.013,26.123
	c-0.077-1.837-0.375-3.645-0.916-5.383h4.739c0.86,1.626,1.389,3.449,1.519,5.383H38.013z M40.683,18.946h-4.222
	c-0.705-1.714-1.645-3.334-2.783-4.845C36.51,14.921,38.949,16.649,40.683,18.946z M30.944,13.613
	c1.479,1.609,2.663,3.409,3.537,5.333h-9.154c0.876-1.921,2.057-3.72,3.535-5.329c0.357-0.027,0.715-0.054,1.08-0.054
	C30.28,13.563,30.611,13.591,30.944,13.613z M26.116,14.125c-1.129,1.503-2.065,3.116-2.763,4.821h-4.152
	C20.916,16.673,23.323,14.956,26.116,14.125z M19.201,35.093h4.157c0.701,1.707,1.643,3.322,2.774,4.825
	C23.333,39.092,20.919,37.371,19.201,35.093z M28.885,40.422c-1.483-1.609-2.672-3.408-3.549-5.329h9.14
	c-0.88,1.924-2.065,3.724-3.552,5.333c-0.325,0.022-0.65,0.05-0.981,0.05C29.585,40.476,29.234,40.448,28.885,40.422z
	 M33.658,39.943c1.141-1.511,2.089-3.135,2.795-4.851h4.229C38.946,37.396,36.498,39.124,33.658,39.943z"/>
</svg>
