<?xml version="1.0" encoding="utf-8"?>
<!-- Generator: Adobe Illustrator 13.0.0, SVG Export Plug-In . SVG Version: 6.00 Build 14948)  -->
<!DOCTYPE svg PUBLIC "-//W3C//DTD SVG 1.1//EN" "http://www.w3.org/Graphics/SVG/1.1/DTD/svg11.dtd">
<svg version="1.1" id="Capa_1" xmlns="http://www.w3.org/2000/svg" xmlns:xlink="http://www.w3.org/1999/xlink" x="0px" y="0px"
	 width="46px" height="46px" viewBox="0 0 1000 1000" enable-background="new 0 0 1000 1000" xml:space="preserve">
<g>
	<g>
		<path fill="#F54E2F" d="M979.166,958.334H20.834C9.334,958.334,0,967.666,0,979.166S9.334,1000,20.834,1000h958.334
			c11.5,0,20.834-9.334,20.834-20.834C1000,967.666,990.666,958.334,979.166,958.334z"/>
	</g>
</g>
<g>
	<g>
		<path fill="#F54E2F" d="M187.5,708.334h-125c-11.5,0-20.834,9.334-20.834,20.834v250C41.666,990.666,51,1000,62.5,1000h125
			c11.5,0,20.834-9.334,20.834-20.834v-250C208.334,717.666,199,708.334,187.5,708.334z M166.666,958.334H83.334V750h83.334v208.334
			H166.666z"/>
	</g>
</g>
<g>
	<g>
		<path fill="#F54E2F" d="M437.5,500h-125c-11.5,0-20.834,9.334-20.834,20.834v458.334c0,11.5,9.334,20.834,20.834,20.834h125
			c11.5,0,20.834-9.334,20.834-20.834V520.834C458.334,509.334,449,500,437.5,500z M416.666,958.334h-83.334V541.666h83.334V958.334
			L416.666,958.334z"/>
	</g>
</g>
<g>
	<g>
		<path fill="#F54E2F" d="M687.5,583.334h-125c-11.5,0-20.834,9.334-20.834,20.834v375c0,11.5,9.334,20.834,20.834,20.834h125
			c11.5,0,20.834-9.334,20.834-20.834v-375C708.334,592.666,699,583.334,687.5,583.334z M666.666,958.334h-83.334V625h83.334
			V958.334z"/>
	</g>
</g>
<g>
	<g>
		<path fill="#F54E2F" d="M937.5,333.334h-125c-11.5,0-20.834,9.334-20.834,20.834v625c0,11.5,9.334,20.834,20.834,20.834h125
			c11.5,0,20.834-9.334,20.834-20.834v-625C958.334,342.666,949,333.334,937.5,333.334z M916.666,958.334h-83.334V375h83.334
			V958.334z"/>
	</g>
</g>
<g>
	<g>
		<path fill="#F54E2F" d="M125,375c-45.959,0-83.334,37.375-83.334,83.334S79.041,541.668,125,541.668s83.334-37.375,83.334-83.334
			S170.959,375,125,375z M125,500c-23,0-41.666-18.709-41.666-41.666c0-22.959,18.666-41.666,41.666-41.666
			s41.666,18.709,41.666,41.666S148,500,125,500z"/>
	</g>
</g>
<g>
	<g>
		<path fill="#F54E2F" d="M375,166.666c-45.959,0-83.334,37.375-83.334,83.334s37.375,83.334,83.334,83.334
			s83.334-37.375,83.334-83.334S420.959,166.666,375,166.666z M375,291.666c-23,0-41.666-18.709-41.666-41.666
			c0-22.959,18.666-41.666,41.666-41.666s41.666,18.709,41.666,41.666C416.666,272.959,398,291.666,375,291.666z"/>
	</g>
</g>
<g>
	<g>
		<path fill="#F54E2F" d="M625,250c-45.959,0-83.334,37.375-83.334,83.334s37.375,83.334,83.334,83.334s83.334-37.375,83.334-83.334
			S670.959,250,625,250z M625,375c-23,0-41.666-18.709-41.666-41.666c0-22.959,18.666-41.666,41.666-41.666
			s41.666,18.709,41.666,41.666S648,375,625,375z"/>
	</g>
</g>
<g>
	<g>
		<path fill="#F54E2F" d="M875,0c-45.959,0-83.334,37.375-83.334,83.334s37.375,83.334,83.334,83.334s83.334-37.375,83.334-83.334
			S920.959,0,875,0z M875,125c-23,0-41.666-18.709-41.666-41.666c0-22.959,18.666-41.666,41.666-41.666s41.666,18.709,41.666,41.666
			S898,125,875,125z"/>
	</g>
</g>
<g>
	<g>
		<path fill="#F54E2F" d="M845.584,112.75c-8.125-8.125-21.334-8.125-29.459,0L654.459,274.416c-8.125,8.125-8.125,21.334,0,29.459
			c4.084,4.041,9.416,6.084,14.75,6.084c5.291,0,10.625-2,14.709-6.084l161.666-161.666
			C853.709,134.084,853.709,120.875,845.584,112.75z"/>
	</g>
</g>
<g>
	<g>
		<path fill="#F54E2F" d="M574.625,285.25l-133.834-38.166c-11.209-3.25-22.584,3.25-25.709,14.334
			c-3.166,11.084,3.25,22.584,14.291,25.75l133.834,38.166c1.916,0.541,3.834,0.791,5.709,0.791c9.084,0,17.416-5.959,20.041-15.125
			C592.125,299.959,585.709,288.416,574.625,285.25z"/>
	</g>
</g>
<g>
	<g>
		<path fill="#F54E2F" d="M342.5,275.959c-7.166-9-20.25-10.459-29.25-3.334l-157.084,125.25c-9,7.209-10.5,20.291-3.291,29.291
			C157,432.332,163.084,435,169.166,435c4.541,0,9.125-1.5,12.959-4.5l157.084-125.25
			C348.209,298.041,349.709,284.959,342.5,275.959z"/>
	</g>
</g>
</svg>
