<?xml version="1.0" encoding="utf-8"?>
<!-- Generator: Adobe Illustrator 13.0.0, SVG Export Plug-In . SVG Version: 6.00 Build 14948)  -->
<!DOCTYPE svg PUBLIC "-//W3C//DTD SVG 1.1//EN" "http://www.w3.org/Graphics/SVG/1.1/DTD/svg11.dtd">
<svg version="1.1" id="Layer_3" xmlns="http://www.w3.org/2000/svg" xmlns:xlink="http://www.w3.org/1999/xlink" x="0px" y="0px"
	 width="46px" height="46px" viewBox="0 0 512 512" enable-background="new 0 0 512 512" xml:space="preserve">
<g>
	<path fill="#F54E2F" d="M444,304h-4v-16c0-13.232-10.768-24-24-24s-24,10.768-24,24H224v-16h-0.208
		c15.424-11.544,26.608-28.456,30.592-48H256c17.648,0,32-14.352,32-32c0-8.048-3.08-15.32-8-20.944V144
		c0-57.344-46.656-104-104-104S72,86.656,72,144v27.056c-4.92,5.624-8,12.896-8,20.944c0,17.648,14.352,32,32,32h1.616
		c3.984,19.544,15.168,36.456,30.592,48H128v16H88c-44.112,0-80,35.889-80,80v128c0,4.424,3.576,8,8,8h272c4.424,0,8-3.576,8-8V376
		h104h44c19.848,0,36-16.152,36-36S463.848,304,444,304z M132.248,304l31.136,37.359l-30.712,15.353L115.096,304H132.248z
		 M174.944,392h2.12l13.712,96h-29.544L174.944,392z M179.056,376h-6.112l-8.608-17.225L176,352.943l11.664,5.832L179.056,376z
		 M188.616,341.359L219.752,304h17.152l-17.576,52.72L188.616,341.359z M256,208v-32c8.824,0,16,7.176,16,16S264.824,208,256,208z
		 M80,192c0-8.824,7.176-16,16-16v32C87.176,208,80,200.824,80,192z M96,160c-2.776,0-5.424,0.464-8,1.136V144
		c0-48.52,39.48-88,88-88s88,39.48,88,88v17.136c-2.576-0.672-5.225-1.136-8-1.136c0-4.424-3.576-8-8-8
		c-12.52,0-24.488-5.984-32-16.008l-9.6-12.8c-3.016-4.016-9.784-4.016-12.8,0L184,136c-7.512,10.016-19.48,16-32,16h-48
		C99.576,152,96,155.576,96,160z M112,208v-40h40c17.528,0,34.28-8.376,44.8-22.4l3.2-4.272l3.2,4.264
		c8.904,11.872,22.264,19.704,36.8,21.824V208c0,35.288-28.712,64-64,64S112,243.288,112,208z M176,288
		c11.376,0,22.192-2.424,32-6.729v11.832l-32,38.4l-32-38.4v-11.832C153.808,285.576,164.624,288,176,288z M24,368
		c0-35.288,28.712-64,64-64h10.24l22.176,66.527c0.728,2.192,2.384,3.969,4.52,4.856C125.92,375.8,126.96,376,128,376
		c1.224,0,2.456-0.28,3.576-0.84l18.44-9.225l9.704,19.408L145.056,488H72V376H56v112H24V368z M392,360h-96v-24h-16v152h-73.056
		L192.28,385.344l9.704-19.408l18.44,9.225c1.12,0.56,2.352,0.84,3.576,0.84c1.04,0,2.08-0.2,3.064-0.607
		c2.144-0.889,3.8-2.664,4.52-4.856L253.76,304H392v8V360z M444,360h-36v-48v-16v-8c0-4.416,3.584-8,8-8s8,3.584,8,8v24
		c0,4.424,3.576,8,8,8h12c11.032,0,20,8.968,20,20S455.032,360,444,360z"/>
	<path fill="#F54E2F" d="M400,216c57.344,0,104-46.656,104-104S457.344,8,400,8S296,54.656,296,112S342.656,216,400,216z M400,24
		c48.52,0,88,39.48,88,88s-39.48,88-88,88s-88-39.48-88-88S351.48,24,400,24z"/>
	<path fill="#F54E2F" d="M384,152c2.048,0,4.096-0.784,5.656-2.344l64-64l-11.313-11.313L384,132.688l-26.344-26.344l-11.313,11.313
		l32,32C379.904,151.216,381.952,152,384,152z"/>
</g>
</svg>
