<?xml version="1.0" encoding="utf-8"?>
<!-- Generator: Adobe Illustrator 13.0.0, SVG Export Plug-In . SVG Version: 6.00 Build 14948)  -->
<!DOCTYPE svg PUBLIC "-//W3C//DTD SVG 1.1//EN" "http://www.w3.org/Graphics/SVG/1.1/DTD/svg11.dtd">
<svg version="1.1" id="Layer_2" xmlns="http://www.w3.org/2000/svg" xmlns:xlink="http://www.w3.org/1999/xlink" x="0px" y="0px"
	 width="57.75px" height="53.521px" viewBox="-0.32 -1.505 57.75 53.521" enable-background="new -0.32 -1.505 57.75 53.521"
	 xml:space="preserve">
<g>
	<path fill="#EC76F0" d="M51.357,38.02c0,6.627-5.371,12-12,12H12.525c-6.627,0-12-5.373-12-12v-26c0-6.627,5.373-12,12-12h26.833
		c6.629,0,12,5.373,12,12V38.02L51.357,38.02z"/>
	<g id="Layer_3">
		<path fill="#C643D1" d="M35.797,16.828l15.542,18.125v3.281c0,0-0.071,11.188-11.979,11.781c-1.028,0-6.625,0-6.625,0l-17-17.188
			l-2.125-7.688l1.188-4.375l1.563-2.75l2.125-2.5l2.688-1.25l1.75-0.75l3.75-0.875l1.688,0.437l2.438,0.813l0.938,0.5
			L35.797,16.828z"/>
	</g>
	<path fill="#FFFFFF" d="M25.941,12.27c-7.029,0-12.75,5.72-12.75,12.75c0,7.031,5.721,12.75,12.75,12.75
		c7.031,0,12.75-5.719,12.75-12.75S32.975,12.27,25.941,12.27L25.941,12.27z M14.73,25.77h4.404
		c0.064,1.537,0.317,3.047,0.771,4.502h-3.903C15.28,28.91,14.835,27.385,14.73,25.77z M19.136,24.27H14.73
		c0.104-1.617,0.549-3.141,1.271-4.5h3.9C19.449,21.223,19.2,22.734,19.136,24.27z M21.489,19.77h8.845
		c0.496,1.447,0.783,2.958,0.854,4.5H20.638C20.704,22.728,20.993,21.217,21.489,19.77z M20.637,25.77h10.552
		c-0.074,1.541-0.364,3.051-0.858,4.502h-8.837C20.997,28.82,20.707,27.311,20.637,25.77z M32.689,25.77h4.468
		c-0.108,1.615-0.55,3.144-1.271,4.502h-3.971C32.371,28.816,32.622,27.307,32.689,25.77z M32.689,24.27
		c-0.064-1.535-0.313-3.047-0.768-4.5h3.965c0.717,1.359,1.157,2.883,1.271,4.5H32.689z M34.922,18.27h-3.527
		c-0.59-1.434-1.377-2.788-2.328-4.051C31.434,14.904,33.473,16.349,34.922,18.27z M26.779,13.811
		c1.236,1.346,2.228,2.85,2.957,4.458h-7.653c0.733-1.606,1.721-3.11,2.956-4.455c0.299-0.023,0.6-0.045,0.902-0.045
		C26.225,13.769,26.502,13.792,26.779,13.811z M22.743,14.238c-0.944,1.257-1.727,2.606-2.31,4.031h-3.472
		C18.396,16.369,20.408,14.934,22.743,14.238z M16.962,31.77h3.476c0.586,1.431,1.374,2.777,2.318,4.035
		C20.417,35.113,18.397,33.674,16.962,31.77z M25.059,36.225c-1.239-1.346-2.234-2.85-2.969-4.455h7.645
		c-0.736,1.609-1.729,3.113-2.971,4.459c-0.271,0.021-0.546,0.043-0.82,0.043C25.644,36.271,25.351,36.247,25.059,36.225z
		 M29.049,35.825c0.954-1.265,1.746-2.622,2.338-4.058h3.534C33.471,33.695,31.423,35.141,29.049,35.825z"/>
</g>
</svg>
