<?xml version="1.0" encoding="utf-8"?>
<!-- Generator: Adobe Illustrator 13.0.0, SVG Export Plug-In . SVG Version: 6.00 Build 14948)  -->
<!DOCTYPE svg PUBLIC "-//W3C//DTD SVG 1.1//EN" "http://www.w3.org/Graphics/SVG/1.1/DTD/svg11.dtd">
<svg version="1.1" id="Layer_1" xmlns="http://www.w3.org/2000/svg" xmlns:xlink="http://www.w3.org/1999/xlink" x="0px" y="0px"
	 width="46px" height="46px" viewBox="0 0 512 512" enable-background="new 0 0 512 512" xml:space="preserve">
<g id="XMLID_996_">
	<g id="XMLID_41_">
		<path id="XMLID_4218_" fill="#F54E2F" d="M312.887,143.383c1.953,1.953,4.513,2.929,7.071,2.929s5.119-0.976,7.071-2.929
			c3.904-3.905,3.904-10.237,0-14.143l-0.135-0.135c-3.905-3.905-10.237-3.905-14.144,0c-3.905,3.905-3.905,10.237,0,14.143
			L312.887,143.383z"/>
		<path id="XMLID_4221_" fill="#F54E2F" d="M474.216,238l34.855-34.855c2.859-2.86,3.715-7.162,2.167-10.898
			c-1.548-3.737-5.194-6.173-9.239-6.173h-72.251c-9.444-38.66-29.265-73.887-57.6-102.223C330.975,42.676,276.23,20,218,20
			c-58.23,0-112.975,22.676-154.149,63.851C22.676,125.026,0,179.77,0,238c0,58.23,22.676,112.975,63.851,154.148
			c12.244,12.244,25.695,22.839,40.074,31.7l-30.127,53.226c-1.752,3.096-1.728,6.89,0.064,9.962C75.653,490.11,78.942,492,82.5,492
			H134c3.603,0,6.928-1.938,8.703-5.074l21.302-37.635C181.44,453.714,199.544,456,218,456s36.56-2.286,53.995-6.709l21.302,37.635
			c1.775,3.136,5.1,5.074,8.703,5.074h51.5c3.558,0,6.847-1.89,8.639-4.963s1.816-6.867,0.064-9.962l-30.127-53.226
			c14.379-8.862,27.83-19.456,40.074-31.699c28.323-28.324,48.154-63.566,57.598-102.224H502c4.044,0,7.691-2.437,9.239-6.173
			s0.691-8.038-2.167-10.898L474.216,238z M455.931,228h-69.789l21.927-21.926h69.79L455.931,228z M128.169,472H99.651
			l21.766-38.453c7.47,3.698,15.139,6.969,22.985,9.775L128.169,472z M336.349,472h-28.518l-16.233-28.678
			c7.846-2.807,15.516-6.077,22.985-9.775L336.349,472z M358.007,378.007c-13.21,13.21-27.964,24.313-43.846,33.162
			c-0.196,0.095-0.395,0.185-0.587,0.294c-0.121,0.069-0.231,0.148-0.349,0.221c-12.183,6.702-25.021,12.083-38.342,16.058
			c-0.524,0.104-1.042,0.258-1.553,0.45C255.577,433.329,236.995,436,218,436s-37.577-2.671-55.331-7.808
			c-0.512-0.192-1.03-0.347-1.555-0.45c-13.32-3.975-26.158-9.355-38.34-16.058c-0.117-0.072-0.227-0.151-0.348-0.221
			c-0.193-0.109-0.39-0.199-0.586-0.294c-15.882-8.85-30.636-19.952-43.846-33.163C40.596,340.609,20,290.889,20,238
			c0-52.888,20.596-102.61,57.993-140.007S165.112,40,218,40c52.889,0,102.61,20.596,140.007,57.993
			c24.573,24.573,42.1,54.844,51.099,88.081h-5.179c-2.651,0-5.196,1.054-7.071,2.929l-26.54,26.541
			c-2.679-18.181-8.557-35.859-17.433-51.936c-2.669-4.835-8.753-6.589-13.588-3.921c-4.835,2.669-6.59,8.753-3.921,13.588
			c9.493,17.194,14.796,35.888,16.153,54.726h-44.093c-2.226-20.256-11.177-39.021-25.794-53.639
			c-17-17-39.601-26.362-63.641-26.362s-46.641,9.362-63.639,26.36C137.362,191.36,128,213.96,128,238s9.362,46.641,26.36,63.639
			c16.999,17,39.6,26.361,63.64,26.361s46.641-9.361,63.639-26.359c14.618-14.619,23.569-33.384,25.795-53.641h44.05
			c-2.386,31.26-15.576,61.596-38.731,84.752C287.443,358.063,253.792,372,218,372s-69.443-13.938-94.752-39.248
			C97.938,307.443,84,273.793,84,238s13.938-69.443,39.248-94.752c41.982-41.982,107.562-51.284,159.479-22.621
			c4.834,2.668,10.918,0.914,13.588-3.921c2.668-4.835,0.914-10.918-3.922-13.588C263.748,87.303,230.019,81,197.422,85.374
			c-33.685,4.518-64.225,19.64-88.316,43.732C80.019,158.193,64,196.865,64,238s16.019,79.809,45.105,108.895
			C138.192,375.98,176.865,392,218,392s79.809-16.02,108.894-45.105c23.636-23.634,38.63-53.475,43.456-86.401l26.506,26.505
			c1.875,1.875,4.419,2.929,7.07,2.929h5.176C400.104,323.162,382.57,353.443,358.007,378.007z M250.66,219.144
			c-2.761-4.784-8.877-6.422-13.66-3.66l-24,13.856c-3.094,1.786-5,5.087-5,8.66s1.906,6.874,5,8.66l24,13.855
			c1.575,0.909,3.294,1.342,4.991,1.342c3.456,0,6.817-1.793,8.669-5.002c1.623-2.81,1.716-6.077,0.555-8.855h36.072
			c-2.119,14.902-8.956,28.664-19.79,39.497l0,0C254.276,300.719,236.698,308,218,308s-36.276-7.281-49.498-20.503
			C155.281,274.275,148,256.698,148,238s7.281-36.276,20.503-49.498C181.724,175.281,199.302,168,218,168
			s36.276,7.281,49.498,20.503c10.833,10.833,17.671,24.594,19.79,39.497h-36.072C252.376,225.22,252.283,221.954,250.66,219.144z
			 M408.068,269.926L386.142,248h69.789l21.928,21.926H408.068z"/>
	</g>
</g>
</svg>
