<?xml version="1.0" encoding="utf-8"?>
<!-- Generator: Adobe Illustrator 13.0.0, SVG Export Plug-In . SVG Version: 6.00 Build 14948)  -->
<!DOCTYPE svg PUBLIC "-//W3C//DTD SVG 1.1//EN" "http://www.w3.org/Graphics/SVG/1.1/DTD/svg11.dtd">
<svg version="1.1" id="Layer_2" xmlns="http://www.w3.org/2000/svg" xmlns:xlink="http://www.w3.org/1999/xlink" x="0px" y="0px"
	 width="57.75px" height="53.521px" viewBox="-0.32 -1.505 57.75 53.521" enable-background="new -0.32 -1.505 57.75 53.521"
	 xml:space="preserve">
<g display="none">
	<path display="inline" fill="#EC76F0" d="M51.357,38.02c0,6.627-5.371,12-12,12H12.525c-6.627,0-12-5.373-12-12v-26
		c0-6.627,5.373-12,12-12h26.833c6.629,0,12,5.373,12,12V38.02L51.357,38.02z"/>
	<g id="Layer_3" display="inline">
		<path fill="#C643D1" d="M35.797,16.828l15.542,18.125v3.281c0,0-0.071,11.188-11.979,11.781c-1.027,0-6.625,0-6.625,0l-17-17.188
			l-2.125-7.688l1.188-4.375l1.563-2.75l2.125-2.5l2.688-1.25l1.75-0.75l3.75-0.875l1.688,0.437l2.438,0.813l0.938,0.5
			L35.797,16.828z"/>
	</g>
	<path display="inline" fill="#FFFFFF" d="M25.941,12.27c-7.029,0-12.75,5.72-12.75,12.75s5.721,12.75,12.75,12.75
		c7.032,0,12.75-5.72,12.75-12.75C38.691,17.989,32.975,12.27,25.941,12.27L25.941,12.27z M14.73,25.77h4.404
		c0.064,1.537,0.317,3.047,0.771,4.502h-3.903C15.28,28.91,14.835,27.385,14.73,25.77z M19.136,24.27H14.73
		c0.104-1.617,0.549-3.142,1.271-4.5h3.9C19.449,21.223,19.2,22.734,19.136,24.27z M21.489,19.77h8.845
		c0.496,1.446,0.783,2.958,0.854,4.5H20.638C20.704,22.728,20.993,21.217,21.489,19.77z M20.637,25.77h10.552
		c-0.074,1.541-0.364,3.051-0.858,4.502h-8.837C20.997,28.82,20.707,27.311,20.637,25.77z M32.689,25.77h4.468
		c-0.108,1.614-0.55,3.144-1.271,4.502h-3.972C32.371,28.816,32.622,27.307,32.689,25.77z M32.689,24.27
		c-0.064-1.535-0.313-3.047-0.769-4.5h3.966c0.717,1.358,1.156,2.883,1.271,4.5H32.689z M34.922,18.27h-3.527
		c-0.59-1.435-1.377-2.788-2.328-4.052C31.434,14.904,33.473,16.349,34.922,18.27z M26.779,13.811
		c1.236,1.346,2.228,2.85,2.958,4.458h-7.653c0.733-1.606,1.721-3.11,2.956-4.455c0.299-0.023,0.6-0.045,0.902-0.045
		C26.225,13.769,26.502,13.792,26.779,13.811z M22.743,14.238c-0.944,1.257-1.727,2.605-2.31,4.031h-3.472
		C18.396,16.369,20.408,14.934,22.743,14.238z M16.962,31.77h3.476c0.586,1.431,1.374,2.776,2.318,4.035
		C20.417,35.113,18.397,33.674,16.962,31.77z M25.059,36.225c-1.239-1.347-2.234-2.851-2.969-4.455h7.645
		c-0.735,1.608-1.729,3.112-2.97,4.459c-0.271,0.021-0.546,0.043-0.82,0.043C25.644,36.271,25.351,36.247,25.059,36.225z
		 M29.049,35.825c0.954-1.265,1.746-2.622,2.338-4.058h3.534C33.471,33.695,31.423,35.141,29.049,35.825z"/>
</g>
<path fill="#FFA821" d="M51.363,38.064c0,6.627-5.371,12-12,12H12.531c-6.627,0-12-5.373-12-12v-26c0-6.627,5.373-12,12-12h26.832
	c6.629,0,12,5.373,12,12V38.064z"/>
<g id="Layer_3_1_">
	<path fill="#D87C0E" d="M38.368,16.396l13.021,18.512v3.281c0,0-0.071,11.251-11.979,11.844c-1.029,0-12.293-0.004-12.293-0.004
		L13.993,34.646l-0.333-9.551l0.25-6.063l0.895-3.137l2.875-1.375l3.48-0.988l1.75-0.75l3.813-0.188l1.688,0.437l2.438,0.813
		l1.207-0.137L38.368,16.396z"/>
</g>
<path fill="#FFFFFF" d="M38.739,17.539c0-3.42-6.592-5.267-12.792-5.267c-6.201,0-12.792,1.847-12.792,5.267
	c0,0.223,0.035,0.479,0.121,0.752h-0.121V32.59c0,3.422,6.591,5.268,12.792,5.268c6.2,0,12.792-1.846,12.792-5.268V18.292h-0.12
	C38.704,18.018,38.739,17.762,38.739,17.539z M25.947,13.777c6.461,0,11.287,1.986,11.287,3.762c0,0.598-0.585,1.256-1.646,1.85
	c-2.136,1.197-5.74,1.912-9.643,1.912s-7.507-0.715-9.644-1.912c-1.06-0.594-1.645-1.25-1.645-1.85
	C14.66,15.763,19.487,13.777,25.947,13.777z M25.947,36.352c-6.46,0-11.287-1.986-11.287-3.763v-2.457
	c0.263,0.203,0.553,0.408,0.908,0.604c2.352,1.316,6.23,2.104,10.379,2.104c0.521,0,1.035-0.014,1.54-0.035
	c3.553-0.168,6.776-0.914,8.836-2.066l0,0h0.003c0.354-0.202,0.646-0.404,0.908-0.607v2.461
	C37.234,34.366,32.408,36.352,25.947,36.352z M35.591,29.424c-2.14,1.195-5.74,1.91-9.644,1.91c-0.488,0-0.974-0.013-1.447-0.031
	c-3.332-0.152-6.326-0.832-8.195-1.875l0,0c-1.06-0.599-1.645-1.256-1.645-1.854v-2.459c0.263,0.203,0.554,0.408,0.911,0.606
	c2.349,1.316,6.229,2.103,10.376,2.103c4.146,0,8.025-0.784,10.376-2.103c0.356-0.198,0.647-0.403,0.911-0.606v2.459
	C37.234,28.172,36.649,28.832,35.591,29.424z M35.589,24.407c-2.138,1.196-5.738,1.91-9.642,1.91c-3.902,0-7.504-0.714-9.642-1.91
	c-1.061-0.593-1.646-1.252-1.646-1.853v-2.458c0.263,0.205,0.553,0.408,0.908,0.607c2.352,1.317,6.229,2.104,10.379,2.104
	c4.146,0,8.025-0.786,10.379-2.104c0.354-0.201,0.646-0.402,0.908-0.607v2.458C37.234,23.154,36.649,23.814,35.589,24.407z"/>
</svg>
