<?xml version="1.0" encoding="utf-8"?>
<!-- Generator: Adobe Illustrator 13.0.0, SVG Export Plug-In . SVG Version: 6.00 Build 14948)  -->
<!DOCTYPE svg PUBLIC "-//W3C//DTD SVG 1.1//EN" "http://www.w3.org/Graphics/SVG/1.1/DTD/svg11.dtd">
<svg version="1.1" id="Layer_1" xmlns="http://www.w3.org/2000/svg" xmlns:xlink="http://www.w3.org/1999/xlink" x="0px" y="0px"
	 width="40px" height="40px" viewBox="0 0 512 512" enable-background="new 0 0 512 512" xml:space="preserve">
<g id="Page-1">
	<g id="_x30_29---mobile-chat">
		<path id="Shape" fill="#F54E2F" d="M286.379,0H47.445C28.594,0,13.312,15.282,13.312,34.133v400.939v0.128v0.247v42.42
			c0,18.851,15.282,34.133,34.133,34.133h238.934c18.852,0,34.133-15.282,34.133-34.133V302.934
			c55.312,14.322,113.692-7.299,146.332-54.193s32.64-109.15,0-156.044c-32.64-46.895-91.021-68.516-146.332-54.193v-4.369
			C320.512,15.282,305.23,0,286.379,0z M232.516,17.066L221.577,28.74c-3.23,3.436-7.734,5.387-12.45,5.393h-84.48
			c-4.716-0.006-9.22-1.957-12.45-5.393l-10.948-11.674H232.516z M47.445,17.066H77.85l21.888,23.339
			c6.457,6.877,15.467,10.784,24.9,10.795h84.48c9.43-0.02,18.436-3.92,24.9-10.786l21.896-23.348h30.464
			c9.426,0,17.066,7.641,17.066,17.067v9.865c-51.784,20.747-85.762,70.883-85.845,126.668
			c-0.092,27.665,8.308,54.692,24.064,77.432l-17.477,48.103c-1.921,5.227-1.171,11.061,2.008,15.633
			c3.18,4.571,8.389,7.305,13.958,7.321c1.834,0.005,3.658-0.282,5.401-0.854l57.89-19.319v136.106v0.128
			c0,9.426-7.641,17.067-17.066,17.067H47.445c-9.33,0.001-16.932-7.491-17.067-16.819V34.133
			C30.378,24.708,38.02,17.067,47.445,17.066L47.445,17.066z M286.379,494.934H47.445c-9.426,0-17.066-7.642-17.066-17.066v-13.27
			c5.164,3.072,11.057,4.708,17.066,4.735h238.934c6.012-0.037,11.904-1.682,17.066-4.761v13.295
			C303.445,487.292,295.805,494.934,286.379,494.934z M473.6,170.667c-0.07,65.951-53.516,119.396-119.466,119.466
			c-15.481,0.046-30.819-2.955-45.142-8.832c-1.901-0.785-4.023-0.858-5.974-0.204l-62.814,20.983l19.038-52.395
			c0.98-2.695,0.541-5.702-1.168-8.004c-15.286-20.513-23.5-45.433-23.408-71.015c0-65.979,53.488-119.466,119.467-119.466
			S473.6,104.687,473.6,170.667z"/>
		<path id="Shape_1_" fill="#F54E2F" d="M260.267,170.667c0,14.139,11.462,25.6,25.601,25.6s25.6-11.461,25.6-25.6
			c0-14.138-11.461-25.6-25.6-25.6S260.267,156.528,260.267,170.667z M285.867,162.133c4.713,0,8.533,3.821,8.533,8.533
			c0,4.713-3.82,8.534-8.533,8.534s-8.533-3.821-8.533-8.534C277.334,165.954,281.154,162.133,285.867,162.133z"/>
		<path id="Shape_2_" fill="#F54E2F" d="M354.134,196.267c14.138,0,25.6-11.461,25.6-25.6c0-14.138-11.462-25.6-25.6-25.6
			c-14.139,0-25.601,11.462-25.601,25.6C328.533,184.805,339.995,196.267,354.134,196.267z M354.134,162.133
			c4.712,0,8.533,3.821,8.533,8.533c0,4.713-3.821,8.534-8.533,8.534c-4.713,0-8.534-3.821-8.534-8.534
			C345.6,165.954,349.421,162.133,354.134,162.133z"/>
		<path id="Shape_3_" fill="#F54E2F" d="M422.4,196.267c14.138,0,25.6-11.461,25.6-25.6c0-14.138-11.462-25.6-25.6-25.6
			c-14.139,0-25.601,11.462-25.601,25.6C396.8,184.805,408.262,196.267,422.4,196.267z M422.4,162.133
			c4.713,0,8.533,3.821,8.533,8.533c0,4.713-3.82,8.534-8.533,8.534s-8.533-3.821-8.533-8.534
			C413.867,165.954,417.688,162.133,422.4,162.133z"/>
	</g>
</g>
</svg>
