<?xml version="1.0" encoding="utf-8"?>
<!-- Generator: Adobe Illustrator 13.0.0, SVG Export Plug-In . SVG Version: 6.00 Build 14948)  -->
<!DOCTYPE svg PUBLIC "-//W3C//DTD SVG 1.1//EN" "http://www.w3.org/Graphics/SVG/1.1/DTD/svg11.dtd">
<svg version="1.1" id="Layer_2" xmlns="http://www.w3.org/2000/svg" xmlns:xlink="http://www.w3.org/1999/xlink" x="0px" y="0px"
	 width="57.75px" height="53.521px" viewBox="-0.32 -1.505 57.75 53.521" enable-background="new -0.32 -1.505 57.75 53.521"
	 xml:space="preserve">
<g display="none">
	<path display="inline" fill="#EC76F0" d="M51.357,38.02c0,6.627-5.371,12-12,12H12.525c-6.627,0-12-5.373-12-12v-26
		c0-6.627,5.373-12,12-12h26.833c6.629,0,12,5.373,12,12V38.02L51.357,38.02z"/>
	<g id="Layer_3" display="inline">
		<path fill="#C643D1" d="M35.797,16.828l15.542,18.125v3.281c0,0-0.071,11.188-11.979,11.781c-1.027,0-6.625,0-6.625,0l-17-17.188
			l-2.125-7.688l1.188-4.375l1.563-2.75l2.125-2.5l2.688-1.25l1.75-0.75l3.75-0.875l1.688,0.437l2.438,0.813l0.938,0.5
			L35.797,16.828z"/>
	</g>
	<path display="inline" fill="#FFFFFF" d="M25.941,12.27c-7.029,0-12.75,5.72-12.75,12.75s5.721,12.75,12.75,12.75
		c7.032,0,12.75-5.72,12.75-12.75C38.691,17.989,32.975,12.27,25.941,12.27L25.941,12.27z M14.73,25.77h4.404
		c0.064,1.537,0.317,3.047,0.771,4.502h-3.903C15.28,28.91,14.835,27.385,14.73,25.77z M19.136,24.27H14.73
		c0.104-1.617,0.549-3.142,1.271-4.5h3.9C19.449,21.223,19.2,22.734,19.136,24.27z M21.489,19.77h8.845
		c0.496,1.446,0.783,2.958,0.854,4.5H20.638C20.704,22.728,20.993,21.217,21.489,19.77z M20.637,25.77h10.552
		c-0.074,1.541-0.364,3.051-0.858,4.502h-8.837C20.997,28.82,20.707,27.311,20.637,25.77z M32.689,25.77h4.468
		c-0.108,1.614-0.55,3.144-1.271,4.502h-3.972C32.371,28.816,32.622,27.307,32.689,25.77z M32.689,24.27
		c-0.064-1.535-0.313-3.047-0.769-4.5h3.966c0.717,1.358,1.156,2.883,1.271,4.5H32.689z M34.922,18.27h-3.527
		c-0.59-1.435-1.377-2.788-2.328-4.052C31.434,14.904,33.473,16.349,34.922,18.27z M26.779,13.811
		c1.236,1.346,2.228,2.85,2.958,4.458h-7.653c0.733-1.606,1.721-3.11,2.956-4.455c0.299-0.023,0.6-0.045,0.902-0.045
		C26.225,13.769,26.502,13.792,26.779,13.811z M22.743,14.238c-0.944,1.257-1.727,2.605-2.31,4.031h-3.472
		C18.396,16.369,20.408,14.934,22.743,14.238z M16.962,31.77h3.476c0.586,1.431,1.374,2.776,2.318,4.035
		C20.417,35.113,18.397,33.674,16.962,31.77z M25.059,36.225c-1.239-1.347-2.234-2.851-2.969-4.455h7.645
		c-0.735,1.608-1.729,3.112-2.97,4.459c-0.271,0.021-0.546,0.043-0.82,0.043C25.644,36.271,25.351,36.247,25.059,36.225z
		 M29.049,35.825c0.954-1.265,1.746-2.622,2.338-4.058h3.534C33.471,33.695,31.423,35.141,29.049,35.825z"/>
</g>
<path fill="#FFFFFF" d="M38.739,17.539c0-3.42-6.592-5.267-12.792-5.267c-6.201,0-12.792,1.847-12.792,5.267
	c0,0.223,0.035,0.479,0.121,0.752h-0.121V32.59c0,3.422,6.591,5.268,12.792,5.268c6.2,0,12.792-1.846,12.792-5.268V18.292h-0.12
	C38.704,18.018,38.739,17.762,38.739,17.539z M25.947,13.777c6.461,0,11.287,1.986,11.287,3.762c0,0.598-0.585,1.256-1.646,1.85
	c-2.136,1.197-5.74,1.912-9.643,1.912s-7.507-0.715-9.644-1.912c-1.06-0.594-1.645-1.25-1.645-1.85
	C14.66,15.763,19.487,13.777,25.947,13.777z M25.947,36.352c-6.46,0-11.287-1.986-11.287-3.763v-2.457
	c0.263,0.203,0.553,0.408,0.908,0.604c2.352,1.316,6.23,2.104,10.379,2.104c0.521,0,1.035-0.014,1.54-0.035
	c3.553-0.168,6.776-0.914,8.836-2.066l0,0h0.003c0.354-0.202,0.646-0.404,0.908-0.607v2.461
	C37.234,34.366,32.408,36.352,25.947,36.352z M35.591,29.424c-2.14,1.195-5.74,1.91-9.644,1.91c-0.488,0-0.974-0.013-1.447-0.031
	c-3.332-0.152-6.326-0.832-8.195-1.875l0,0c-1.06-0.599-1.645-1.256-1.645-1.854v-2.459c0.263,0.203,0.554,0.408,0.911,0.606
	c2.349,1.316,6.229,2.103,10.376,2.103c4.146,0,8.025-0.784,10.376-2.103c0.356-0.198,0.647-0.403,0.911-0.606v2.459
	C37.234,28.172,36.649,28.832,35.591,29.424z M35.589,24.407c-2.138,1.196-5.738,1.91-9.642,1.91c-3.902,0-7.504-0.714-9.642-1.91
	c-1.061-0.593-1.646-1.252-1.646-1.853v-2.458c0.263,0.205,0.553,0.408,0.908,0.607c2.352,1.317,6.229,2.104,10.379,2.104
	c4.146,0,8.025-0.786,10.379-2.104c0.354-0.201,0.646-0.402,0.908-0.607v2.458C37.234,23.154,36.649,23.814,35.589,24.407z"/>
<path fill="#29A4FC" d="M51.325,38.046c0,6.627-5.371,12-12,12H12.493c-6.627,0-12-5.373-12-12v-26c0-6.627,5.374-12,12-12h26.832
	c6.629,0,12,5.373,12,12V38.046L51.325,38.046z"/>
<g id="Layer_3_2_">
	<path fill="#0B83B2" d="M34.495,15.394l16.828,19.484v3.531c0,0-0.109,11.031-12.017,11.625c-1.031,0-7.703,0.016-7.703,0.016
		L16.15,33.596l-2.858-7.921l0.733-6.047l0.944-1.758l2.914-2.914l3.246-1.441l1.75-0.75l3.813-0.188l1.688,0.437l2.02,0.051
		l1.625,0.625L34.495,15.394z"/>
</g>
<g>
	<g>
		<g>
			<path fill="#FFFFFF" d="M14.917,19.745c-0.07-0.197-0.256-0.331-0.465-0.338c-0.211-0.007-0.404,0.114-0.488,0.305
				c-0.743,1.667-1.121,3.438-1.121,5.265c0,2.475,0.703,4.879,2.029,6.956c1.291,2.021,3.11,3.641,5.264,4.686
				c0.072,0.037,0.148,0.055,0.225,0.055c0.125,0,0.249-0.045,0.346-0.133c0.156-0.143,0.211-0.361,0.14-0.561L14.917,19.745z
				 M13.874,24.977c0-1.226,0.186-2.425,0.551-3.579l4.978,13.636C15.96,32.864,13.874,29.12,13.874,24.977z"/>
			<path fill="#FFFFFF" d="M30.296,36.337l-3.813-10.45c-0.073-0.204-0.269-0.339-0.483-0.339c-0.002,0-0.004,0-0.006,0
				c-0.218,0.001-0.41,0.141-0.481,0.347l-3.728,10.831c-0.045,0.133-0.035,0.279,0.029,0.402c0.064,0.127,0.178,0.219,0.313,0.26
				c1.189,0.35,2.418,0.527,3.654,0.527c1.469,0,2.914-0.248,4.297-0.734c0.146-0.053,0.264-0.168,0.313-0.314
				c0.053-0.145,0.034-0.309-0.045-0.439C30.32,36.389,30.308,36.36,30.296,36.337z M25.779,36.884
				c-0.958,0-1.911-0.117-2.842-0.346l3.075-8.932l3.201,8.771C28.103,36.714,26.948,36.884,25.779,36.884z"/>
			<path fill="#FFFFFF" d="M31.708,32.452c0.217,0,0.412-0.139,0.483-0.344l1.373-3.863c0.658-1.688,0.978-3.062,0.978-4.196
				c0-1.711-0.506-2.599-0.953-3.38c-0.002-0.005-0.006-0.01-0.008-0.016c-0.051-0.08-0.101-0.16-0.148-0.238
				c-0.533-0.862-0.994-1.607-0.994-2.404c0-0.812,0.6-1.688,1.568-1.688c0.016,0,0.041,0.002,0.066,0.004
				c0.021,0.001,0.04,0.003,0.063,0.004c0.219,0.014,0.422-0.111,0.508-0.313c0.086-0.201,0.035-0.435-0.127-0.583
				c-2.391-2.191-5.492-3.396-8.734-3.396c-4.363,0-8.404,2.18-10.811,5.831c-0.102,0.156-0.113,0.355-0.027,0.521
				c0.086,0.165,0.254,0.271,0.439,0.278c0.318,0.01,0.593,0.015,0.818,0.015c1.196,0,2.949-0.128,3.293-0.155
				c0.055,0.1,0.061,0.336,0.008,0.424c-0.137,0.015-0.725,0.078-1.359,0.112c-0.162,0.008-0.309,0.091-0.4,0.224
				c-0.09,0.133-0.113,0.302-0.063,0.455l4.066,12.106c0.071,0.211,0.269,0.352,0.489,0.352l0,0c0.222,0,0.418-0.143,0.488-0.354
				l2.718-8.15c0.038-0.112,0.035-0.233-0.006-0.344L23.958,19.4c-0.071-0.191-0.25-0.323-0.453-0.334
				c-0.586-0.034-1.15-0.101-1.254-0.113c-0.045-0.099-0.035-0.325,0.021-0.423c0.354,0.026,2.127,0.155,3.251,0.155
				c1.198,0,2.95-0.128,3.293-0.155c0.057,0.099,0.063,0.336,0.01,0.424c-0.139,0.015-0.727,0.078-1.359,0.111
				c-0.161,0.009-0.313,0.092-0.401,0.226c-0.09,0.134-0.112,0.303-0.062,0.456l4.215,12.355c0.072,0.207,0.267,0.35,0.486,0.352
				C31.706,32.452,31.706,32.452,31.708,32.452z M28.195,20.049c0.441-0.035,0.759-0.072,0.777-0.074
				c0.594-0.07,0.978-0.644,0.911-1.365c-0.061-0.689-0.506-1.147-1.081-1.113c-0.003,0-0.007,0-0.011,0
				c-0.021,0.002-2.008,0.156-3.271,0.156c-1.187,0-3.212-0.154-3.231-0.156c-0.004,0-0.006,0-0.01,0
				c-0.585-0.035-1.043,0.459-1.086,1.174c-0.042,0.713,0.348,1.259,0.928,1.305c0.082,0.01,0.494,0.059,0.985,0.097l1.3,3.472
				l-2.175,6.52L18.868,20.05c0.442-0.035,0.762-0.072,0.781-0.074c0.592-0.07,0.975-0.645,0.912-1.366
				c-0.061-0.688-0.506-1.146-1.083-1.111c-0.003,0-0.006,0-0.009,0c-0.02,0.002-1.814,0.141-3.077,0.156
				c2.251-2.886,5.692-4.582,9.385-4.582c2.625,0,5.147,0.857,7.216,2.435c-0.936,0.414-1.59,1.382-1.59,2.505
				c0,1.09,0.559,1.992,1.15,2.947c0.047,0.076,0.094,0.152,0.141,0.229c0.419,0.734,0.813,1.43,0.813,2.862
				c0,0.993-0.305,2.28-0.908,3.829c-0.002,0.006-0.004,0.01-0.008,0.016l-0.877,2.475L28.195,20.049z"/>
			<path fill="#FFFFFF" d="M37.132,18.77c-0.119-0.218-0.377-0.319-0.611-0.242c-0.236,0.077-0.385,0.313-0.352,0.559
				c0.053,0.387,0.08,0.793,0.08,1.208c0,1.354-0.289,2.708-0.91,4.258c-0.002,0.007-0.004,0.015-0.008,0.022l-3.793,10.97
				c-0.07,0.203-0.009,0.43,0.159,0.566c0.095,0.076,0.21,0.113,0.326,0.113c0.091,0,0.181-0.021,0.261-0.066
				c1.922-1.121,3.53-2.729,4.657-4.645c1.16-1.975,1.772-4.234,1.772-6.54C38.716,22.808,38.169,20.661,37.132,18.77z
				 M33.015,34.428l3.287-9.504c0.473-1.183,0.766-2.263,0.896-3.322c0.319,1.091,0.487,2.229,0.487,3.375
				C37.687,28.69,35.929,32.192,33.015,34.428z"/>
		</g>
	</g>
</g>
</svg>
