<?xml version="1.0" encoding="utf-8"?>
<!-- Generator: Adobe Illustrator 13.0.0, SVG Export Plug-In . SVG Version: 6.00 Build 14948)  -->
<!DOCTYPE svg PUBLIC "-//W3C//DTD SVG 1.1//EN" "http://www.w3.org/Graphics/SVG/1.1/DTD/svg11.dtd">
<svg version="1.1" id="Capa_1" xmlns="http://www.w3.org/2000/svg" xmlns:xlink="http://www.w3.org/1999/xlink" x="0px" y="0px"
	 width="40px" height="40px" viewBox="0 0 512 512" enable-background="new 0 0 512 512" xml:space="preserve">
<g>
	<path fill="#F54E2F" d="M326.623,133.062c13.785,0,25-11.215,25-25s-11.215-25.001-25-25.001s-25,11.216-25,25.001
		c0,5.63,1.872,10.83,5.025,15.014l-41.076,57.401c-2.451-0.805-5.066-1.247-7.784-1.247c-6.569,0-12.551,2.551-17.017,6.709
		l-27.379-15.536c0.365-1.696,0.561-3.454,0.561-5.257c0-13.785-11.215-25-25-25c-13.785,0-25,11.215-25,25
		c0,1.803,0.196,3.561,0.561,5.257l-27.379,15.536c-4.466-4.158-10.448-6.708-17.017-6.708c-13.785,0-25,11.216-25,25.001
		c0,13.785,11.215,25.001,25,25.001c13.785,0,25-11.216,25-25.001c0-1.803-0.196-3.561-0.561-5.257l27.379-15.536
		c4.466,4.158,10.448,6.709,17.017,6.709c6.569,0,12.55-2.551,17.017-6.708l27.379,15.536c-0.365,1.696-0.561,3.454-0.561,5.257
		c0,13.785,11.215,25.001,25,25.001c13.786,0,25.001-11.216,25.001-25.001c0-5.631-1.873-10.832-5.025-15.016l41.075-57.401
		C321.289,132.62,323.905,133.062,326.623,133.062z M326.623,98.061c5.514,0,10,4.486,10,10.001c0,5.514-4.486,10-10,10
		s-10-4.486-10-10C316.622,102.547,321.108,98.061,326.623,98.061z M120.115,214.231c-5.514,0-10-4.486-10-10.001
		s4.486-10.001,10-10.001c5.514,0,10,4.486,10,10.001S125.629,214.231,120.115,214.231z M188.951,175.146
		c-5.514,0-10-4.486-10-10.001c0-5.514,4.486-10,10-10c5.514,0,10,4.486,10,10C198.952,170.66,194.465,175.146,188.951,175.146z
		 M257.787,214.231c-5.514,0-10-4.486-10-10.001s4.486-10.001,10-10.001c5.515,0,10.001,4.486,10.001,10.001
		S263.301,214.231,257.787,214.231z"/>
	<path fill="#F54E2F" d="M418.796,376.965H366.31H80.428H21.215c-3.427,0-6.215-2.788-6.215-6.215V61.331
		c0-3.427,2.788-6.215,6.215-6.215h35.356c4.142,0,7.5-3.357,7.5-7.5c0-4.143-3.358-7.5-7.5-7.5H21.215
		C9.517,40.116,0,49.633,0,61.331V370.75c0,11.698,9.517,21.215,21.215,21.215h51.713v16.506c0,9.403,7.65,17.054,17.053,17.054
		h75.074l-35.34,68.998c-1.888,3.687-0.431,8.206,3.256,10.095c1.094,0.561,2.262,0.826,3.413,0.826c2.725,0,5.354-1.49,6.681-4.083
		l38.843-75.836h82.922l38.843,75.836c1.328,2.593,3.956,4.083,6.681,4.083c1.151,0,2.319-0.268,3.413-0.826
		c3.688-1.889,5.146-6.408,3.257-10.095l-35.34-68.998h75.073c9.403,0,17.053-7.649,17.053-17.054v-16.506h44.986
		c4.142,0,7.5-3.357,7.5-7.5S422.938,376.965,418.796,376.965z M358.81,408.471c0,1.132-0.921,2.054-2.053,2.054H89.981
		c-1.132,0-2.053-0.921-2.053-2.054v-16.506H358.81V408.471z"/>
	<path fill="#F54E2F" d="M86.571,55.116h102.672h68.251h168.027c3.428,0,6.216,2.788,6.216,6.215v71.311c0,4.143,3.357,7.5,7.5,7.5
		c4.142,0,7.5-3.357,7.5-7.5V61.331c0-11.698-9.518-21.215-21.216-21.215H264.995V25.374c0-10.375-8.44-18.816-18.817-18.816H200.56
		c-10.375,0-18.817,8.441-18.817,18.816v14.742H86.571c-4.142,0-7.5,3.357-7.5,7.5C79.071,51.759,82.429,55.116,86.571,55.116z
		 M196.743,25.374c0-2.104,1.712-3.816,3.817-3.816h45.618c2.104,0,3.817,1.712,3.817,3.816v14.742h-53.251L196.743,25.374
		L196.743,25.374z"/>
	<path fill="#F54E2F" d="M104.902,267.576c-4.142,0-7.5,3.357-7.5,7.5v66.271c0,4.144,3.358,7.5,7.5,7.5h30.427
		c4.142,0,7.5-3.356,7.5-7.5v-66.271c0-4.143-3.358-7.5-7.5-7.5H104.902z M127.829,333.85h-15.427v-51.272h15.427V333.85z"/>
	<path fill="#F54E2F" d="M173.737,229.248c-4.142,0-7.5,3.357-7.5,7.5V341.35c0,4.143,3.358,7.5,7.5,7.5h30.427
		c4.142,0,7.5-3.357,7.5-7.5V236.748c0-4.143-3.358-7.5-7.5-7.5H173.737z M196.665,333.85h-15.427v-89.602h15.427V333.85z"/>
	<path fill="#F54E2F" d="M242.573,267.576c-4.142,0-7.5,3.357-7.5,7.5v66.271c0,4.144,3.358,7.5,7.5,7.5H273
		c4.143,0,7.5-3.356,7.5-7.5v-66.271c0-4.143-3.357-7.5-7.5-7.5H242.573z M265.5,333.85h-15.427v-51.272H265.5V333.85z"/>
	<path fill="#F54E2F" d="M311.409,311.832c-4.143,0-7.5,3.357-7.5,7.5v22.018c0,4.143,3.357,7.5,7.5,7.5h30.427
		c4.143,0,7.5-3.357,7.5-7.5c0-4.144-3.357-7.5-7.5-7.5h-22.927v-14.518C318.909,315.189,315.551,311.832,311.409,311.832z"/>
	<path fill="#F54E2F" d="M508.175,384.02l-43.026-74.526c10.9-11.619,18.839-25.816,23.078-41.64
		c6.777-25.292,3.3-51.708-9.793-74.385c-27.025-46.813-87.097-62.906-133.906-35.881c-46.812,27.025-62.906,87.096-35.881,133.907
		c13.093,22.676,34.231,38.896,59.522,45.674c8.446,2.263,17.015,3.382,25.53,3.382c7.441,0,14.841-0.855,22.077-2.55l43.018,74.528
		c5.273,9.137,14.875,14.25,24.737,14.249c4.833,0,9.729-1.229,14.208-3.813c8.796-5.077,14.261-14.544,14.261-24.706
		C512,393.279,510.678,388.357,508.175,384.02z M372.051,322.68c-21.421-5.74-39.326-19.479-50.415-38.685
		c-22.89-39.648-9.257-90.526,30.391-113.417c13.043-7.53,27.296-11.106,41.374-11.106c28.715,0,56.683,14.893,72.043,41.497
		c11.088,19.206,14.033,41.58,8.294,63.002c-5.74,21.422-19.479,39.325-38.686,50.414
		C415.847,325.475,393.473,328.418,372.051,322.68z M490.242,409.973c-6.453,3.727-14.733,1.509-18.456-4.941l-41.388-71.704
		c4.147-1.693,8.21-3.673,12.155-5.951c3.949-2.28,7.689-4.817,11.23-7.565l41.399,71.707c1.188,2.061,1.816,4.393,1.816,6.742
		C497,403.078,494.41,407.567,490.242,409.973z"/>
	<path fill="#F54E2F" d="M461.542,263.611c5.295-17.056,4.034-35.316-3.551-51.417c-1.767-3.748-6.234-5.354-9.981-3.589
		c-3.748,1.766-5.354,6.234-3.588,9.981c5.983,12.7,6.977,27.109,2.795,40.575c-4.204,13.54-13.286,24.902-25.572,31.997
		c-13.003,7.508-28.151,9.5-42.652,5.614c-14.502-3.885-26.624-13.187-34.13-26.188c-15.497-26.841-6.268-61.285,20.573-76.782
		c19.625-11.329,43.98-9.815,62.052,3.857c3.304,2.5,8.007,1.849,10.506-1.455c2.499-3.303,1.848-8.007-1.456-10.506
		c-22.891-17.321-53.745-19.238-78.602-4.887c-16.473,9.51-28.256,24.866-33.179,43.238s-2.396,37.562,7.114,54.034
		s24.866,28.255,43.238,33.18c6.135,1.644,12.36,2.456,18.546,2.456c12.338,0,24.517-3.235,35.487-9.571
		C444.71,295.163,456.216,280.768,461.542,263.611z"/>
</g>
</svg>
