<?xml version="1.0" encoding="utf-8"?>
<!-- Generator: Adobe Illustrator 13.0.0, SVG Export Plug-In . SVG Version: 6.00 Build 14948)  -->
<!DOCTYPE svg PUBLIC "-//W3C//DTD SVG 1.1//EN" "http://www.w3.org/Graphics/SVG/1.1/DTD/svg11.dtd">
<svg version="1.1" id="Capa_1" xmlns="http://www.w3.org/2000/svg" xmlns:xlink="http://www.w3.org/1999/xlink" x="0px" y="0px"
	 width="46px" height="46px" viewBox="0 0 1000 1000" enable-background="new 0 0 1000 1000" xml:space="preserve">
<g>
	<g>
		<g>
			<path fill="#7C45E9" d="M1000,687.5c0-34.459-28.041-62.5-62.5-62.5h-625c-34.459,0-62.5,28.041-62.5,62.5v83.334
				c0,16.041,6.25,30.584,16.25,41.666c-10,11.084-16.25,25.625-16.25,41.666V937.5c0,34.459,28.041,62.5,62.5,62.5h625
				c34.459,0,62.5-28.041,62.5-62.5v-83.334c0-16.041-6.25-30.584-16.25-41.666c10-11.084,16.25-25.625,16.25-41.666V687.5z
				 M958.334,937.5c0,11.5-9.334,20.834-20.834,20.834h-625c-11.5,0-20.834-9.334-20.834-20.834v-83.334
				c0-11.5,9.334-20.834,20.834-20.834h625c11.5,0,20.834,9.334,20.834,20.834V937.5z M958.334,770.834
				c0,11.5-9.334,20.834-20.834,20.834h-625c-11.5,0-20.834-9.334-20.834-20.834V687.5c0-11.5,9.334-20.834,20.834-20.834h625
				c11.5,0,20.834,9.334,20.834,20.834V770.834z"/>
			<path fill="#7C45E9" d="M194.541,928.625C100.25,900.541,41.666,856.041,41.666,812.5V687.291
				c30.959,29,78.041,54,139.834,72.541c2,0.584,4.041,0.875,6,0.875c8.959,0,17.25-5.791,19.959-14.834
				c3.334-11.041-2.916-22.625-13.959-25.959C99.834,691.83,41.666,647.498,41.666,604.164v-125.75
				c66.791,62.584,207.709,104.916,375,104.916s308.209-42.334,375-104.916V562.5c0,11.5,9.334,20.834,20.834,20.834
				S833.334,574,833.334,562.5v-375C833.334,82.375,650.293,0,416.668,0S0,82.375,0,187.5v625
				c0,64.625,66.584,121.459,182.666,156.041c2,0.584,4,0.875,5.959,0.875c9,0,17.25-5.834,19.916-14.875
				C211.875,943.5,205.584,931.916,194.541,928.625z M416.666,41.666c221,0,375,76.875,375,145.834s-154,145.834-375,145.834
				s-375-76.875-375-145.834S195.666,41.666,416.666,41.666z M41.666,270.084C108.459,332.666,249.375,375,416.666,375
				s308.209-42.334,375-104.916v125.75c0,68.959-154,145.834-375,145.834s-375-76.875-375-145.834V270.084L41.666,270.084z"/>
			<path fill="#7C45E9" d="M895.834,875H729.168c-11.5,0-20.834,9.334-20.834,20.834s9.334,20.834,20.834,20.834h166.666
				c11.5,0,20.834-9.334,20.834-20.834S907.334,875,895.834,875z"/>
			<path fill="#7C45E9" d="M354.166,708.334c-11.5,0-20.834,9.334-20.834,20.834s9.334,20.834,20.834,20.834
				S375,740.666,375,729.166S365.666,708.334,354.166,708.334z"/>
			<path fill="#7C45E9" d="M354.166,875c-11.5,0-20.834,9.334-20.834,20.834s9.334,20.834,20.834,20.834S375,907.334,375,895.834
				S365.666,875,354.166,875z"/>
			<path fill="#7C45E9" d="M895.834,708.334H729.168c-11.5,0-20.834,9.334-20.834,20.834s9.334,20.834,20.834,20.834h166.666
				c11.5,0,20.834-9.334,20.834-20.834C916.666,717.666,907.334,708.334,895.834,708.334z"/>
		</g>
	</g>
</g>
</svg>
