<?xml version="1.0" encoding="utf-8"?>
<!-- Generator: Adobe Illustrator 13.0.0, SVG Export Plug-In . SVG Version: 6.00 Build 14948)  -->
<!DOCTYPE svg PUBLIC "-//W3C//DTD SVG 1.1//EN" "http://www.w3.org/Graphics/SVG/1.1/DTD/svg11.dtd">
<svg version="1.1" id="Capa_1" xmlns="http://www.w3.org/2000/svg" xmlns:xlink="http://www.w3.org/1999/xlink" x="0px" y="0px"
	 width="40px" height="40px" viewBox="0 0 512 512" enable-background="new 0 0 512 512" xml:space="preserve">
<path id="XMLID_1468_" fill="#F54E2F" d="M502.329,77.814l6.741-6.741c3.904-3.905,3.904-10.237,0-14.143
	c-3.905-3.904-10.237-3.904-14.144,0l-6.74,6.741l-6.737-6.737c-1.875-1.875-4.419-2.929-7.07-2.929H463.38L412.303,2.929
	C410.427,1.054,407.884,0,405.232,0H36.015C16.157,0,0.001,16.155,0.001,36.014v187.399c0,19.857,16.156,36.013,36.014,36.013
	h87.119l-58.584,58.586c-6.802,6.802-10.548,15.846-10.548,25.465s3.746,18.663,10.548,25.467l132.51,132.51
	c6.802,6.802,15.846,10.548,25.466,10.548s18.664-3.746,25.466-10.548l99.246-99.245c3.905-3.904,3.905-10.236,0-14.143
	c-3.905-3.903-10.237-3.903-14.143,0l-99.247,99.245c-3.024,3.024-7.046,4.689-11.323,4.689s-8.299-1.665-11.323-4.689L78.691,354.8
	c-3.024-3.024-4.69-7.046-4.69-11.323s1.666-8.299,4.69-11.322L336.838,74.007h133.399l3.809,3.808l-23.124,23.124
	c-3.917-1.878-8.3-2.931-12.926-2.931c-16.542,0-30,13.458-30,30c0,16.542,13.458,30,30,30s29.999-13.458,29.999-30
	c0-4.625-1.054-9.01-2.932-12.926l23.124-23.124l3.808,3.808v133.398l-95.263,95.263c-3.905,3.905-3.905,10.237,0,14.144
	c3.905,3.903,10.236,3.903,14.143,0l98.192-98.192c1.875-1.876,2.929-4.419,2.929-7.071V91.622c0-2.652-1.054-5.195-2.929-7.071
	L502.329,77.814z M179.578,179.433c-5.516,0-10.003-4.487-10.003-10.003c0-5.517,4.487-10.004,10.003-10.004
	c5.516,0,10.002,4.487,10.002,10.004C189.581,174.945,185.094,179.433,179.578,179.433z M332.696,54.006
	c-2.652,0-5.196,1.054-7.071,2.929L209.333,173.227c0.158-1.245,0.249-2.511,0.249-3.798c0-16.544-13.459-30.004-30.002-30.004
	c-16.543,0-30.003,13.46-30.003,30.004c0,16.543,13.459,30.002,30.003,30.002c1.287,0,2.553-0.091,3.798-0.249l-40.243,40.243
	H36.015c-8.83,0-16.014-7.184-16.014-16.014V36.014C20,27.184,27.185,20,36.015,20h365.074l34.007,34.006H332.696z M437.996,138.005
	c-5.514,0-10-4.486-10-10c0-5.514,4.486-10,10-10c2.281,0,4.382,0.777,6.066,2.069c0.266,0.346,0.547,0.684,0.863,1
	s0.654,0.598,1,0.863c1.292,1.685,2.069,3.785,2.069,6.067C447.996,133.52,443.51,138.005,437.996,138.005z"/>
<path id="XMLID_1527_" fill="#F54E2F" d="M332.595,295.832c2.652,0,5.196-1.055,7.071-2.93l22.627-22.627
	c3.904-3.905,3.904-10.237,0-14.144c-3.905-3.904-10.237-3.904-14.142,0l-15.557,15.558l-49.497-49.497
	c-3.904-3.904-10.236-3.904-14.142,0c-3.905,3.905-3.905,10.237,0,14.143l56.568,56.567
	C327.4,294.777,329.944,295.832,332.595,295.832L332.595,295.832z"/>
<path id="XMLID_1528_" fill="#F54E2F" d="M410.376,208.051c-3.904-3.904-10.236-3.904-14.143,0l-12.728,12.728l-14.143-14.141
	l12.729-12.728c3.904-3.905,3.904-10.237,0-14.143c-3.905-3.904-10.237-3.904-14.143,0l-12.729,12.728l-14.142-14.142l12.728-12.728
	c3.905-3.905,3.906-10.237,0-14.143c-3.904-3.903-10.236-3.904-14.142,0l-19.799,19.798c-1.875,1.875-2.929,4.419-2.929,7.071
	s1.054,5.195,2.929,7.071l56.568,56.567c1.952,1.952,4.512,2.929,7.071,2.929c2.559,0,5.118-0.977,7.07-2.929l19.799-19.799
	C414.281,218.288,414.281,211.956,410.376,208.051z"/>
<path id="XMLID_1531_" fill="#F54E2F" d="M299.772,323.025c4.919,2.508,10.942,0.55,13.45-4.371
	c2.507-4.921,0.55-10.941-4.372-13.449l-74.952-38.184c-3.86-1.967-8.547-1.224-11.61,1.84c-3.063,3.063-3.806,7.75-1.839,11.609
	l38.184,74.952c1.766,3.468,5.275,5.464,8.918,5.463c1.527,0,3.078-0.351,4.531-1.092c4.921-2.507,6.878-8.528,4.371-13.449
	l-3.065-6.02l20.366-20.367L299.772,323.025z M263.841,321.588l-11.604-22.778l22.78,11.604L263.841,321.588z"/>
<path id="XMLID_1532_" fill="#F54E2F" d="M203.904,400.381c-3.905,3.905-3.906,10.237,0,14.144c1.953,1.952,4.512,2.929,7.071,2.929
	s5.119-0.977,7.071-2.929l14.143-14.142c11.697-11.697,11.697-30.729,0-42.427c-11.118-11.118-28.857-11.66-40.632-1.644
	c-0.366,0.276-0.722,0.57-1.055,0.904l-0.74,0.739c-1.889,1.889-4.4,2.929-7.071,2.929s-5.182-1.04-7.071-2.929
	c-3.899-3.899-3.899-10.243,0-14.144l14.142-14.142c3.905-3.905,3.906-10.237,0-14.143c-3.905-3.903-10.237-3.903-14.142,0
	l-14.143,14.142c-11.697,11.697-11.697,30.73,0,42.428c5.667,5.666,13.2,8.786,21.213,8.786c8.002,0,15.526-3.112,21.192-8.767
	c0.007-0.006,0.015-0.013,0.022-0.02c3.898-3.9,10.243-3.9,14.142,0c1.889,1.889,2.929,4.398,2.929,7.07s-1.04,5.183-2.929,7.07
	L203.904,400.381z"/>
<path id="XMLID_1533_" fill="#F54E2F" d="M171.337,64.556c-4.809-2.714-10.909-1.018-13.624,3.792l-64.5,114.253
	c-2.715,4.81-1.018,10.909,3.792,13.624c1.554,0.877,3.241,1.294,4.907,1.294c3.49,0,6.879-1.83,8.717-5.086L175.129,78.18
	C177.844,73.37,176.147,67.27,171.337,64.556z"/>
<path id="XMLID_1536_" fill="#F54E2F" d="M125.174,89.996c0-16.544-13.458-30.003-30.002-30.003S65.168,73.452,65.168,89.996
	C65.168,106.54,78.627,120,95.171,120S125.174,106.54,125.174,89.996z M85.168,89.996c0-5.516,4.487-10.003,10.003-10.003
	s10.003,4.487,10.003,10.003c0,5.517-4.487,10.004-10.003,10.004S85.168,95.513,85.168,89.996z"/>
<path id="XMLID_1537_" fill="#F54E2F" d="M371.986,353.314c-2.64,0-5.21,1.07-7.069,2.932c-1.86,1.859-2.931,4.438-2.931,7.068
	c0,2.631,1.07,5.211,2.931,7.07c1.859,1.859,4.43,2.93,7.069,2.93c2.63,0,5.21-1.068,7.07-2.93c1.86-1.859,2.93-4.439,2.93-7.07
	c0-2.63-1.069-5.209-2.93-7.068C377.196,354.386,374.616,353.314,371.986,353.314z"/>
</svg>
