<?xml version="1.0" encoding="utf-8"?>
<!-- Generator: Adobe Illustrator 13.0.0, SVG Export Plug-In . SVG Version: 6.00 Build 14948)  -->
<!DOCTYPE svg PUBLIC "-//W3C//DTD SVG 1.1//EN" "http://www.w3.org/Graphics/SVG/1.1/DTD/svg11.dtd">
<svg version="1.1" id="Capa_1" xmlns="http://www.w3.org/2000/svg" xmlns:xlink="http://www.w3.org/1999/xlink" x="0px" y="0px"
	 width="46px" height="46px" viewBox="0 0 1000 1000" enable-background="new 0 0 1000 1000" xml:space="preserve">
<g>
	<g>
		<g>
			<path fill="#F54E2F" d="M893.906,221.98c-1.088,0-1.088-1.088-2.176-2.176c-1.088-1.088-1.088-2.176-2.177-3.265L702.394,6.529
				c-1.088-1.088-3.264-2.176-4.353-3.264c-1.088,0-1.088-1.088-2.176-1.088C693.688,1.088,690.425,0,687.16,0H227.965
				c-67.465,0-122.96,55.495-122.96,122.96v754.08c0,67.465,55.495,122.96,122.96,122.96h544.07
				c67.464,0,122.959-55.495,122.959-122.96V229.598C894.994,227.421,893.906,224.157,893.906,221.98z M707.835,73.994
				l120.783,136.017H707.835V73.994z M853.646,875.952c0,45.702-35.909,82.698-81.61,82.698h-544.07
				c-45.702,0-81.611-36.996-81.611-81.61V121.872c0-45.702,36.997-81.61,81.611-81.61h438.52v189.336
				c0,10.881,8.705,20.675,20.675,20.675h166.485V875.952z"/>
			<path fill="#F54E2F" d="M251.904,250.272h181.719c10.882,0,20.675-8.705,20.675-20.674c0-11.97-8.705-20.675-20.675-20.675
				H251.904c-10.881,0-20.675,8.705-20.675,20.675C231.229,241.567,241.023,250.272,251.904,250.272z"/>
			<path fill="#F54E2F" d="M433.623,749.728H251.904c-10.881,0-20.675,8.706-20.675,20.675c0,10.882,8.705,20.675,20.675,20.675
				h181.719c10.882,0,20.675-8.705,20.675-20.675C454.298,759.521,444.505,749.728,433.623,749.728z"/>
			<path fill="#F54E2F" d="M231.229,366.703c0,10.881,8.705,20.674,20.675,20.674h485.311c10.881,0,20.674-8.705,20.674-20.674
				c0-10.882-8.705-20.675-20.674-20.675H251.904C241.023,346.028,231.229,354.733,231.229,366.703z"/>
			<path fill="#F54E2F" d="M737.215,448.313H251.904c-10.881,0-20.675,8.705-20.675,20.675c0,10.881,8.705,20.675,20.675,20.675
				h485.311c10.881,0,20.674-8.705,20.674-20.675S749.184,448.313,737.215,448.313z"/>
			<path fill="#F54E2F" d="M737.215,549.511H251.904c-10.881,0-20.675,8.705-20.675,20.674c0,10.882,8.705,20.675,20.675,20.675
				h485.311c10.881,0,20.674-8.705,20.674-20.675C757.889,558.216,749.184,549.511,737.215,549.511z"/>
			<path fill="#F54E2F" d="M737.215,650.707H251.904c-10.881,0-20.675,8.705-20.675,20.675c0,10.882,8.705,20.675,20.675,20.675
				h485.311c10.881,0,20.674-8.705,20.674-20.675C757.889,660.501,749.184,650.707,737.215,650.707z"/>
		</g>
	</g>
</g>
</svg>
