<?xml version="1.0" encoding="utf-8"?>
<!-- Generator: Adobe Illustrator 13.0.0, SVG Export Plug-In . SVG Version: 6.00 Build 14948)  -->
<!DOCTYPE svg PUBLIC "-//W3C//DTD SVG 1.1//EN" "http://www.w3.org/Graphics/SVG/1.1/DTD/svg11.dtd">
<svg version="1.1" id="Layer_1" xmlns="http://www.w3.org/2000/svg" xmlns:xlink="http://www.w3.org/1999/xlink" x="0px" y="0px"
	 width="46px" height="46px" viewBox="-35 0 511 511" enable-background="new -35 0 511 511" xml:space="preserve">
<path fill="#F54E2F" d="M324.121,251.403c24.355-34.772,37.229-75.59,37.229-118.042V38.709c0-4.674-3.248-8.725-7.809-9.743
	L224.667,0.238c-1.431-0.316-2.912-0.316-4.343,0L91.456,28.967c-4.565,1.018-7.809,5.068-7.809,9.743v94.651
	c0,42.452,12.873,83.271,37.228,118.039c24.354,34.772,58.315,60.819,98.214,75.33c1.099,0.397,2.257,0.6,3.407,0.6
	c1.154,0,2.312-0.202,3.411-0.6C265.807,312.222,299.768,286.171,324.121,251.403z M222.496,306.689
	c-34.55-13.322-63.98-36.34-85.271-66.741c-21.992-31.396-33.618-68.253-33.618-106.588V46.709l118.889-26.503l118.893,26.503
	v86.651c0,38.331-11.626,75.189-33.618,106.588C286.477,270.35,257.046,293.367,222.496,306.689z"/>
<path fill="#F54E2F" d="M324.41,68.319c0-4.678-3.244-8.725-7.809-9.743l-91.93-20.495c-1.431-0.316-2.916-0.316-4.347,0
	l-91.934,20.495c-5.38,1.201-8.768,6.534-7.567,11.915c1.197,5.38,6.534,8.768,11.91,7.567l89.762-20.007l81.953,18.269v57.041
	c0,30.713-9.314,60.242-26.932,85.399c-14.156,20.21-33.111,36.584-55.021,47.59c-21.91-11.001-40.861-27.379-55.018-47.59
	c-15.24-21.758-24.394-47.193-26.468-73.548c-0.175-2.199-0.3-4.421-0.374-6.612c-0.191-5.513-4.842-9.821-10.32-9.633
	c-5.509,0.191-9.821,4.811-9.629,10.319c0.085,2.483,0.226,5.006,0.421,7.493c2.355,29.906,12.737,58.756,30.02,83.431
	c17.072,24.37,40.3,43.832,67.177,56.276c1.329,0.616,2.764,0.924,4.195,0.924s2.861-0.308,4.191-0.924
	c26.881-12.448,50.109-31.906,67.177-56.276c19.98-28.526,30.546-62.02,30.546-96.85V68.319H324.41z"/>
<path fill="#F54E2F" d="M194.063,185.169c1.747,2.066,4.253,3.333,6.955,3.513c0.222,0.016,0.444,0.023,0.667,0.023
	c2.464,0,4.854-0.912,6.694-2.577l72.359-65.466c4.085-3.696,4.4-10.008,0.705-14.098c-3.699-4.085-10.012-4.401-14.098-0.706
	l-64.705,58.538l-18.468-21.844c-3.555-4.207-9.855-4.737-14.062-1.177c-4.21,3.56-4.737,9.855-1.182,14.066L194.063,185.169z"/>
<path fill="#F54E2F" d="M138.454,330.307c-5.259-6.916-12.905-11.313-21.524-12.389c-8.62-1.072-17.111,1.31-23.911,6.717
	c-3.181,2.53-5.75,5.563-7.688,8.904l-2.932-3.82c-2.604-3.389-4.035-7.606-4.035-11.879v-90.039
	c0-18.394-14.967-33.361-33.36-33.361c-17.302,0-31.579,12.99-33.212,30.21L1.109,337.309c-0.94,9.868,1.844,19.657,7.867,27.611
	L93.81,475.383v25.638c0,5.513,4.468,9.98,9.98,9.98c5.509,0,9.98-4.468,9.98-9.98v-29.029c0-2.199-0.729-4.335-2.066-6.078
	L24.848,352.814c-2.959-3.906-4.332-8.745-3.868-13.622l10.686-112.655c0.655-6.92,6.39-12.137,13.337-12.137
	c7.392,0,13.399,6.012,13.399,13.4v90.039c0,8.646,2.901,17.181,8.167,24.035l20.893,27.208c0.031,0.043,0.062,0.086,0.093,0.128
	l16.858,21.954c3.36,4.37,9.625,5.192,13.996,1.836c4.37-3.356,5.193-9.622,1.836-13.996l-16.913-22.023
	c-3.918-5.185-2.982-12.671,2.117-16.726c2.561-2.038,5.762-2.936,9.01-2.533c3.248,0.405,6.128,2.066,8.109,4.67l40.292,52.951
	c7.93,10.422,12.296,23.373,12.296,36.468v69.209c0,5.513,4.468,9.98,9.98,9.98s9.98-4.468,9.98-9.98v-69.209
	c0-17.435-5.813-34.678-16.371-48.554L138.454,330.307z"/>
<path fill="#F54E2F" d="M441.088,337.309L430.402,224.65c-1.634-17.22-15.914-30.21-33.213-30.21
	c-18.394,0-33.36,14.967-33.36,33.361v90.039c0,4.272-1.435,8.49-4.035,11.879l-2.936,3.82c-1.934-3.337-4.503-6.37-7.685-8.904
	c-6.799-5.407-15.29-7.789-23.91-6.717c-8.62,1.075-16.265,5.473-21.523,12.389l-40.293,52.951
	c-10.558,13.876-16.374,31.119-16.374,48.558v69.205c0,5.513,4.472,9.98,9.98,9.98c5.513,0,9.98-4.468,9.98-9.98v-69.209
	c0-13.095,4.366-26.046,12.296-36.468l40.293-52.951c1.984-2.604,4.865-4.261,8.112-4.67c3.248-0.402,6.448,0.495,9.01,2.533
	c5.096,4.055,6.035,11.541,2.113,16.726l-16.908,22.023c-3.356,4.374-2.534,10.64,1.836,13.996s10.636,2.534,13.996-1.836
	l16.854-21.954c0.031-0.038,0.059-0.077,0.09-0.116l20.9-27.216c5.264-6.858,8.164-15.393,8.164-24.039v-90.039
	c0-7.388,6.012-13.4,13.399-13.4c6.947,0,12.683,5.216,13.342,12.137l10.686,112.655c0.46,4.881-0.912,9.716-3.832,13.571
	l-86.896,113.149c-1.338,1.743-2.063,3.883-2.063,6.082v29.025c0,5.513,4.468,9.98,9.98,9.98s9.98-4.468,9.98-9.98v-25.638
	l84.869-110.514C439.24,356.966,442.023,347.177,441.088,337.309z"/>
<path fill="#F54E2F" d="M125.022,111.879c3.513,2.343,8.269,2.195,11.614-0.382c3.146-2.425,4.624-6.659,3.563-10.503
	c-1.135-4.121-4.823-7.146-9.107-7.38c-4.242-0.23-8.246,2.359-9.801,6.3C119.584,104.245,121.163,109.282,125.022,111.879z"/>
</svg>
