<?xml version="1.0" encoding="utf-8"?>
<!-- Generator: Adobe Illustrator 13.0.0, SVG Export Plug-In . SVG Version: 6.00 Build 14948)  -->
<!DOCTYPE svg PUBLIC "-//W3C//DTD SVG 1.1//EN" "http://www.w3.org/Graphics/SVG/1.1/DTD/svg11.dtd">
<svg version="1.1" id="Layer_1" xmlns="http://www.w3.org/2000/svg" xmlns:xlink="http://www.w3.org/1999/xlink" x="0px" y="0px"
	 width="46px" height="46px" viewBox="0 0 512 512" enable-background="new 0 0 512 512" xml:space="preserve">
<g id="Share">
	<path fill="#7C45E9" d="M96,184c0-13.255-10.745-24-24-24s-24,10.745-24,24s10.745,24,24,24S96,197.255,96,184z M64,184
		c0-4.418,3.582-8,8-8s8,3.582,8,8s-3.582,8-8,8S64,188.418,64,184z"/>
	<path fill="#7C45E9" d="M136,208c13.255,0,24-10.745,24-24s-10.745-24-24-24s-24,10.745-24,24S122.745,208,136,208z M136,176
		c4.418,0,8,3.582,8,8s-3.582,8-8,8s-8-3.582-8-8S131.582,176,136,176z"/>
	<path fill="#7C45E9" d="M72,288c-13.255,0-24,10.745-24,24s10.745,24,24,24s24-10.745,24-24S85.255,288,72,288z M72,320
		c-4.418,0-8-3.582-8-8s3.582-8,8-8s8,3.582,8,8S76.418,320,72,320z"/>
	<path fill="#7C45E9" d="M136,288c-13.255,0-24,10.745-24,24s10.745,24,24,24s24-10.745,24-24S149.255,288,136,288z M136,320
		c-4.418,0-8-3.582-8-8s3.582-8,8-8s8,3.582,8,8S140.418,320,136,320z"/>
	<path fill="#7C45E9" d="M200,288c-13.255,0-24,10.745-24,24s10.745,24,24,24s24-10.745,24-24S213.255,288,200,288z M200,320
		c-4.418,0-8-3.582-8-8s3.582-8,8-8s8,3.582,8,8S204.418,320,200,320z"/>
	<path fill="#7C45E9" d="M264,320h-16c-4.418,0-8,3.582-8,8s3.582,8,8,8h16c4.418,0,8-3.582,8-8S268.418,320,264,320z"/>
	<path fill="#7C45E9" d="M72,416c-13.255,0-24,10.745-24,24s10.745,24,24,24s24-10.745,24-24l0,0C96,426.745,85.255,416,72,416z
		 M72,448c-4.418,0-8-3.582-8-8s3.582-8,8-8s8,3.582,8,8S76.418,448,72,448z"/>
	<path fill="#7C45E9" d="M136,416c-13.255,0-24,10.745-24,24s10.745,24,24,24s24-10.745,24-24l0,0C160,426.745,149.255,416,136,416z
		 M136,448c-4.418,0-8-3.582-8-8s3.582-8,8-8s8,3.582,8,8S140.418,448,136,448z"/>
	<path fill="#7C45E9" d="M200,416c-13.255,0-24,10.745-24,24s10.745,24,24,24s24-10.745,24-24l0,0C224,426.745,213.255,416,200,416z
		 M200,448c-4.418,0-8-3.582-8-8s3.582-8,8-8s8,3.582,8,8S204.418,448,200,448z"/>
	<path fill="#7C45E9" d="M264,416h-16c-4.418,0-8,3.582-8,8s3.582,8,8,8h16c4.418,0,8-3.582,8-8S268.418,416,264,416z"/>
	<path fill="#7C45E9" d="M264,448h-16c-4.418,0-8,3.582-8,8s3.582,8,8,8h16c4.418,0,8-3.582,8-8S268.418,448,264,448z"/>
	<path fill="#7C45E9" d="M312,416h-16c-4.418,0-8,3.582-8,8s3.582,8,8,8h16c4.418,0,8-3.582,8-8S316.418,416,312,416z"/>
	<path fill="#7C45E9" d="M312,448h-16c-4.418,0-8,3.582-8,8s3.582,8,8,8h16c4.418,0,8-3.582,8-8S316.418,448,312,448z"/>
	<path fill="#7C45E9" d="M336,424c0,4.418,3.582,8,8,8h16c4.418,0,8-3.582,8-8s-3.582-8-8-8h-16C339.582,416,336,419.582,336,424z"
		/>
	<path fill="#7C45E9" d="M360,448h-16c-4.418,0-8,3.582-8,8s3.582,8,8,8h16c4.418,0,8-3.582,8-8S364.418,448,360,448z"/>
	<path fill="#7C45E9" d="M344,272c-57.41-0.066-103.934-46.59-104-104c0-4.418-3.582-8-8-8s-8,3.582-8,8
		c0.075,66.243,53.757,119.925,120,120c4.418,0,8-3.582,8-8S348.418,272,344,272z"/>
	<path fill="#7C45E9" d="M344,48c-4.418,0-8,3.582-8,8s3.582,8,8,8c57.41,0.066,103.934,46.59,104,104c0,4.418,3.582,8,8,8
		s8-3.582,8-8C463.925,101.757,410.243,48.075,344,48z"/>
	<path fill="#7C45E9" d="M496,168c0.067-83.894-67.888-151.958-151.782-152.025C275.637,15.919,215.524,61.824,197.52,128H72
		c-30.912,0.04-55.96,25.088-56,56c0.033,27.813,20.473,51.387,48,55.36v17.264C36.467,260.598,16.024,284.182,16,312
		c0.033,27.813,20.473,51.387,48,55.359v17.281c-30.575,4.656-51.587,33.217-46.931,63.792C21.211,475.628,44.492,495.788,72,496
		h272c30.927-0.238,55.805-25.503,55.567-56.43c-0.212-27.508-20.372-50.789-47.567-54.93v-17.265
		c27.533-3.974,47.976-27.558,48-55.376c0-0.936-0.2-1.809-0.248-2.736C457.756,286.354,495.903,230.364,496,168z M210.184,240
		c3.032,5.54,6.409,10.884,10.112,16H80v-16H210.184z M32,184c0.04-22.075,17.925-39.96,40-40h122.088
		c-4.599,26.96-1.573,54.668,8.736,80H72C49.919,223.974,32.026,206.081,32,184z M80,384v-16h256v16H80z M384,440
		c-0.026,22.08-17.92,39.974-40,40H72c-22.091,0-40-17.908-40-40s17.909-40,40-40h272C366.08,400.026,383.974,417.92,384,440z
		 M372.24,340.288C364.784,347.83,354.605,352.052,344,352H72c-22.081-0.026-39.974-17.92-40-40c0.04-22.075,17.925-39.961,40-40
		h161.456c38.229,41.125,96.184,57.529,150.296,42.544C383.228,324.253,379.127,333.424,372.24,340.288z M344,304
		c-75.111,0-136-60.889-136-136S268.889,32,344,32c75.11,0,136,60.889,136,136C479.916,243.076,419.076,303.916,344,304z"/>
	<path fill="#7C45E9" d="M376,136c13.255,0,24-10.745,24-24s-10.745-24-24-24s-24,10.745-24,24c0.009,1.502,0.161,3,0.456,4.472
		L295.4,149.744c-10.102-8.583-25.248-7.352-33.83,2.75c-8.582,10.101-7.351,25.247,2.75,33.829
		c8.49,7.214,20.828,7.636,29.791,1.021l58.736,30.696c-3.35,12.87,4.369,26.019,17.239,29.369
		c12.87,3.349,26.019-4.369,29.368-17.239c3.35-12.871-4.368-26.02-17.238-29.369c-7.019-1.827-14.486-0.393-20.329,3.903
		l-58.735-30.696c0.537-1.958,0.822-3.977,0.848-6.008c-0.009-1.502-0.161-3-0.456-4.472l57.056-33.272
		C364.889,133.938,370.348,135.974,376,136z M376,104c4.418,0,8,3.582,8,8s-3.582,8-8,8s-8-3.582-8-8S371.582,104,376,104z M272,168
		c0-4.418,3.582-8,8-8s8,3.582,8,8s-3.582,8-8,8S272,172.418,272,168z M384,224c0,4.418-3.582,8-8,8s-8-3.582-8-8s3.582-8,8-8
		S384,219.582,384,224z"/>
</g>
</svg>
