<?xml version="1.0" encoding="utf-8"?>
<!-- Generator: Adobe Illustrator 13.0.0, SVG Export Plug-In . SVG Version: 6.00 Build 14948)  -->
<!DOCTYPE svg PUBLIC "-//W3C//DTD SVG 1.1//EN" "http://www.w3.org/Graphics/SVG/1.1/DTD/svg11.dtd">
<svg version="1.1" id="Layer_1" xmlns="http://www.w3.org/2000/svg" xmlns:xlink="http://www.w3.org/1999/xlink" x="0px" y="0px"
	 width="46px" height="46px" viewBox="0 0 480 480" enable-background="new 0 0 480 480" xml:space="preserve">
<path fill="#7C45E9" d="M472,440H312v-16c0-4.418-3.582-8-8-8h-32v-24c0-4.418-3.582-8-8-8h-16v-16h128c4.418,0,8-3.582,8-8V232
	c0-4.418-3.582-8-8-8H104c-4.418,0-8,3.582-8,8v128c0,4.418,3.582,8,8,8h128v16h-16c-4.418,0-8,3.582-8,8v24h-32
	c-4.418,0-8,3.582-8,8v16H8c-4.418,0-8,3.582-8,8s3.582,8,8,8h160v16c0,4.418,3.582,8,8,8h128c4.418,0,8-3.582,8-8v-16h160
	c4.418,0,8-3.582,8-8S476.418,440,472,440z M112,240h256v48H112V240z M112,304h256v48H112V304z M296,464H184v-32h32
	c4.418,0,8-3.582,8-8v-24h32v24c0,4.418,3.582,8,8,8h32V464z"/>
<path fill="#7C45E9" d="M160,328c0,8.836-7.164,16-16,16s-16-7.164-16-16s7.164-16,16-16S160,319.164,160,328z"/>
<path fill="#7C45E9" d="M352,328c0-4.418-3.582-8-8-8H184c-4.418,0-8,3.582-8,8s3.582,8,8,8h160C348.418,336,352,332.418,352,328z"
	/>
<path fill="#7C45E9" d="M456,0H24C10.746,0,0,10.746,0,24v296c0,13.254,10.746,24,24,24h48c4.418,0,8-3.582,8-8s-3.582-8-8-8H24
	c-4.418,0-8-3.582-8-8V112h448v208c0,4.418-3.582,8-8,8h-48.625c-4.418,0-8,3.582-8,8s3.582,8,8,8H456c13.254,0,24-10.746,24-24V24
	C480,10.746,469.254,0,456,0z M16,96V24c0-4.418,3.582-8,8-8h432c4.418,0,8,3.582,8,8v72H16z"/>
<path fill="#7C45E9" d="M56,32c-13.254,0-24,10.746-24,24s10.746,24,24,24s24-10.746,24-24S69.254,32,56,32z M56,64
	c-4.418,0-8-3.582-8-8s3.582-8,8-8s8,3.582,8,8S60.418,64,56,64z"/>
<path fill="#7C45E9" d="M120,32c-13.254,0-24,10.746-24,24s10.746,24,24,24s24-10.746,24-24S133.254,32,120,32z M120,64
	c-4.418,0-8-3.582-8-8s3.582-8,8-8s8,3.582,8,8S124.418,64,120,64z"/>
<path fill="#7C45E9" d="M184,32c-13.254,0-24,10.746-24,24s10.746,24,24,24s24-10.746,24-24S197.254,32,184,32z M184,64
	c-4.418,0-8-3.582-8-8s3.582-8,8-8s8,3.582,8,8S188.418,64,184,64z"/>
<path fill="#7C45E9" d="M160,264c0,8.836-7.164,16-16,16s-16-7.164-16-16s7.164-16,16-16S160,255.164,160,264z"/>
<path fill="#7C45E9" d="M344,256H184c-4.418,0-8,3.582-8,8s3.582,8,8,8h160c4.418,0,8-3.582,8-8S348.418,256,344,256z"/>
<path fill="#7C45E9" d="M432,200v-64c0-4.418-3.582-8-8-8H56c-4.418,0-8,3.582-8,8v64c0,4.418,3.582,8,8,8h368
	C428.418,208,432,204.418,432,200z M416,192H64v-48h352V192z"/>
</svg>
