<?xml version="1.0" encoding="utf-8"?>
<!-- Generator: Adobe Illustrator 13.0.0, SVG Export Plug-In . SVG Version: 6.00 Build 14948)  -->
<!DOCTYPE svg PUBLIC "-//W3C//DTD SVG 1.1//EN" "http://www.w3.org/Graphics/SVG/1.1/DTD/svg11.dtd">
<svg version="1.1" id="Layer_2" xmlns="http://www.w3.org/2000/svg" xmlns:xlink="http://www.w3.org/1999/xlink" x="0px" y="0px"
	 width="57.75px" height="53.521px" viewBox="-0.32 -1.505 57.75 53.521" enable-background="new -0.32 -1.505 57.75 53.521"
	 xml:space="preserve">
<g display="none">
	<path display="inline" fill="#EC76F0" d="M51.357,38.02c0,6.627-5.371,12-12,12H12.525c-6.627,0-12-5.373-12-12v-26
		c0-6.627,5.373-12,12-12h26.833c6.629,0,12,5.373,12,12V38.02L51.357,38.02z"/>
	<g id="Layer_3" display="inline">
		<path fill="#C643D1" d="M35.797,16.828l15.542,18.125v3.281c0,0-0.071,11.188-11.979,11.781c-1.027,0-6.625,0-6.625,0l-17-17.188
			l-2.125-7.688l1.188-4.375l1.563-2.75l2.125-2.5l2.688-1.25l1.75-0.75l3.75-0.875l1.688,0.437l2.438,0.813l0.938,0.5
			L35.797,16.828z"/>
	</g>
	<path display="inline" fill="#FFFFFF" d="M25.941,12.27c-7.029,0-12.75,5.72-12.75,12.75s5.721,12.75,12.75,12.75
		c7.032,0,12.75-5.72,12.75-12.75C38.691,17.989,32.975,12.27,25.941,12.27L25.941,12.27z M14.73,25.77h4.404
		c0.064,1.537,0.317,3.047,0.771,4.502h-3.903C15.28,28.91,14.835,27.385,14.73,25.77z M19.136,24.27H14.73
		c0.104-1.617,0.549-3.142,1.271-4.5h3.9C19.449,21.223,19.2,22.734,19.136,24.27z M21.489,19.77h8.845
		c0.496,1.446,0.783,2.958,0.854,4.5H20.638C20.704,22.728,20.993,21.217,21.489,19.77z M20.637,25.77h10.552
		c-0.074,1.541-0.364,3.051-0.858,4.502h-8.837C20.997,28.82,20.707,27.311,20.637,25.77z M32.689,25.77h4.468
		c-0.108,1.614-0.55,3.144-1.271,4.502h-3.972C32.371,28.816,32.622,27.307,32.689,25.77z M32.689,24.27
		c-0.064-1.535-0.313-3.047-0.769-4.5h3.966c0.717,1.358,1.156,2.883,1.271,4.5H32.689z M34.922,18.27h-3.527
		c-0.59-1.435-1.377-2.788-2.328-4.052C31.434,14.904,33.473,16.349,34.922,18.27z M26.779,13.811
		c1.236,1.346,2.228,2.85,2.958,4.458h-7.653c0.733-1.606,1.721-3.11,2.956-4.455c0.299-0.023,0.6-0.045,0.902-0.045
		C26.225,13.769,26.502,13.792,26.779,13.811z M22.743,14.238c-0.944,1.257-1.727,2.605-2.31,4.031h-3.472
		C18.396,16.369,20.408,14.934,22.743,14.238z M16.962,31.77h3.476c0.586,1.431,1.374,2.776,2.318,4.035
		C20.417,35.113,18.397,33.674,16.962,31.77z M25.059,36.225c-1.239-1.347-2.234-2.851-2.969-4.455h7.645
		c-0.735,1.608-1.729,3.112-2.97,4.459c-0.271,0.021-0.546,0.043-0.82,0.043C25.644,36.271,25.351,36.247,25.059,36.225z
		 M29.049,35.825c0.954-1.265,1.746-2.622,2.338-4.058h3.534C33.471,33.695,31.423,35.141,29.049,35.825z"/>
</g>
<g>
	<path fill="#FC6D41" d="M51.411,38.053c0,6.627-5.371,12-12,12H12.578c-6.627,0-12-5.373-12-12v-26c0-6.627,5.373-12,12-12h26.833
		c6.629,0,12,5.373,12,12V38.053L51.411,38.053z"/>
	<g id="Layer_3_1_">
		<path fill="#E53B1A" d="M38.932,16.912l12.479,17.974v3.531c0,0-0.109,11.031-12.019,11.625c-1.031,0-15.783,0.016-15.783,0.016
			L13.057,37.993l1.615-10.539l-0.561-7.819l0.943-1.758l-0.195-0.798l2.707-4.042l5.398-0.267l3.813-0.188l1.688,0.437l2.021,0.051
			l3.164,0.111L38.932,16.912z"/>
	</g>
</g>
<path fill="#FFFFFF" d="M33.604,31.143c-1.258,0-2.283,1.023-2.283,2.283c0,1.258,1.025,2.283,2.283,2.283
	c1.26,0,2.283-1.025,2.283-2.283C35.889,32.167,34.863,31.143,33.604,31.143z M33.604,34.188c-0.418,0-0.762-0.344-0.762-0.762
	c0-0.42,0.344-0.762,0.762-0.762c0.42,0,0.763,0.342,0.763,0.762C34.366,33.844,34.023,34.188,33.604,34.188z M38.932,16.912
	l-4.449-4.794H17.51l-4.453,4.697v9.791h1.424l-1.424,1.783v9.604h25.875v-9.527l-1.592-1.858h1.592V16.912z M18.165,13.639h15.653
	l2.824,3.044H15.279L18.165,13.639z M14.579,36.469v-6.088h22.83v6.088H14.579z M37.268,28.859H14.63l1.797-2.254h18.912
	L37.268,28.859z M14.579,25.085v-6.879h22.83v6.879H14.579z M33.604,19.727c-1.258,0-2.283,1.024-2.283,2.283
	c0,1.257,1.025,2.281,2.283,2.281c1.26,0,2.283-1.024,2.283-2.281C35.889,20.752,34.863,19.727,33.604,19.727z M33.604,22.77
	c-0.418,0-0.762-0.341-0.762-0.759s0.344-0.761,0.762-0.761c0.42,0,0.763,0.343,0.763,0.761S34.023,22.77,33.604,22.77z"/>
</svg>
