<?xml version="1.0" encoding="utf-8"?>
<!-- Generator: Adobe Illustrator 13.0.0, SVG Export Plug-In . SVG Version: 6.00 Build 14948)  -->
<!DOCTYPE svg PUBLIC "-//W3C//DTD SVG 1.1//EN" "http://www.w3.org/Graphics/SVG/1.1/DTD/svg11.dtd">
<svg version="1.1" id="Layer_1" xmlns="http://www.w3.org/2000/svg" xmlns:xlink="http://www.w3.org/1999/xlink" x="0px" y="0px"
	 width="46px" height="46px" viewBox="0 0 1000 1000" enable-background="new 0 0 1000 1000" xml:space="preserve">
<g>
	<g>
		<g>
			<path fill="#7C45E9" d="M80.221,297.785c-2.783-7.623-9.91-12.795-18.02-13.078c-8.154-0.258-15.58,4.385-18.885,11.795
				C14.586,360.92,0.018,429.383,0.018,499.98c0,95.633,27.1,188.592,78.367,268.826c49.898,78.092,120.242,140.729,203.434,181.139
				c2.77,1.348,5.744,2.002,8.699,2.002c4.832,0,9.611-1.758,13.352-5.135c6.025-5.439,8.148-13.992,5.365-21.617L80.221,297.785z
				 M39.859,499.98c0-47.391,7.133-93.738,21.256-138.354l192.383,527.059C120.52,804.764,39.859,660.104,39.859,499.98z"/>
			<path fill="#7C45E9" d="M674.563,938.994l-147.408-403.85c-2.873-7.867-10.352-13.09-18.711-13.09c-0.063,0-0.125,0-0.188,0
				c-8.434,0.08-15.904,5.461-18.652,13.438L345.555,954.033c-1.771,5.143-1.361,10.787,1.135,15.621s6.861,8.436,12.08,9.973
				C404.736,993.148,452.256,1000,500.002,1000c56.744,0,112.609-9.537,166.045-28.348c5.678-2,10.146-6.459,12.16-12.133
				s1.352-11.955-1.801-17.084C675.58,941.086,674.988,939.984,674.563,938.994z M500.002,960.16c-37,0-73.855-4.475-109.84-13.316
				l118.83-345.26l123.75,339.043C589.721,953.596,545.168,960.16,500.002,960.16z"/>
			<path fill="#7C45E9" d="M729.086,788.844c8.426,0,15.951-5.307,18.773-13.258l53.004-149.293
				c25.426-65.227,37.785-118.271,37.785-162.152c0-66.152-19.576-100.416-36.854-130.646c-0.105-0.184-0.213-0.369-0.326-0.553
				c-1.918-3.119-3.826-6.201-5.715-9.252c-20.643-33.33-38.473-62.115-38.473-92.912c0-31.395,23.201-65.281,60.682-65.281
				c0.619,0,1.57,0.08,2.58,0.166c0.789,0.066,1.572,0.131,2.361,0.182c8.455,0.549,16.291-4.297,19.605-12.068
				c3.313-7.771,1.365-16.791-4.867-22.5C745.26,46.621,625.352,0,500.002,0C331.379,0,175.211,84.232,82.256,225.322
				c-3.967,6.021-4.371,13.715-1.057,20.117c3.313,6.4,9.828,10.514,17.031,10.752c12.268,0.406,22.889,0.613,31.563,0.613
				c46.262,0,114.016-4.98,127.309-5.992c2.127,3.832,2.33,12.969,0.268,16.387c-5.244,0.586-27.967,3.033-52.525,4.314
				c-6.221,0.324-11.93,3.537-15.434,8.689c-3.504,5.148-4.396,11.643-2.412,17.547l157.188,467.9
				c2.725,8.111,10.324,13.576,18.883,13.576c0.008,0,0.016,0,0.021,0c8.566-0.01,16.168-5.494,18.877-13.619l105.064-315.084
				c1.441-4.324,1.359-9.01-0.238-13.281l-57.166-152.818c-2.766-7.387-9.625-12.447-17.498-12.906
				c-22.625-1.318-44.477-3.883-48.42-4.357c-1.795-3.801-1.381-12.572,0.736-16.344c13.676,1.023,82.225,5.984,125.656,5.984
				c46.27,0,114.027-4.98,127.313-5.992c2.129,3.83,2.336,12.971,0.271,16.385c-5.229,0.586-27.984,3.035-52.531,4.318
				c-6.236,0.324-11.959,3.557-15.461,8.729c-3.5,5.172-4.373,11.686-2.357,17.596l162.898,477.52
				c2.736,8.023,10.254,13.436,18.73,13.488C729.004,788.844,729.043,788.844,729.086,788.844z M593.418,309.531
				c16.988-1.383,29.273-2.807,30.029-2.896c22.902-2.707,37.736-24.889,35.275-52.744c-2.355-26.627-19.598-44.328-41.842-42.996
				c-0.127,0.008-0.26,0.016-0.387,0.025c-0.771,0.061-77.566,6.039-126.398,6.039c-45.854,0-124.123-5.982-124.908-6.041
				c-0.119-0.01-0.238-0.018-0.359-0.023c-22.633-1.357-40.336,17.74-41.971,45.367c-1.633,27.59,13.4,48.66,35.842,50.424
				c3.172,0.385,19.055,2.273,38.104,3.725L447,444.602l-84.008,251.939L232.984,309.543c17.063-1.385,29.4-2.816,30.164-2.906
				c22.898-2.707,37.727-24.896,35.264-52.758c-2.357-26.619-19.594-44.33-41.834-42.982c-0.127,0.008-0.26,0.016-0.387,0.025
				c-0.73,0.061-70.086,5.459-118.904,5.998C224.293,105.391,357.299,39.838,500.002,39.838c101.414,0,198.961,33.16,278.822,94.115
				c-36.039,15.99-61.383,53.371-61.383,96.824c0,42.135,21.588,76.99,44.443,113.891c1.811,2.924,3.641,5.879,5.48,8.869
				c16.191,28.338,31.439,55.213,31.439,110.604c0,38.363-11.832,88.141-35.172,147.959c-0.074,0.191-0.145,0.383-0.213,0.576
				l-33.961,95.648L593.418,309.531z"/>
			<path fill="#7C45E9" d="M938.732,260.107c-4.611-8.414-14.572-12.342-23.697-9.348c-9.119,3.004-14.799,12.086-13.51,21.6
				c2.027,14.971,3.059,30.678,3.059,46.682c0,52.391-11.154,104.676-35.1,164.545c-0.117,0.293-0.227,0.59-0.33,0.887
				L722.533,908.41c-2.721,7.873-0.258,16.609,6.18,21.9c3.648,2.996,8.137,4.529,12.654,4.529c3.447,0,6.912-0.895,10.023-2.711
				c74.252-43.287,136.502-105.314,180.021-179.379c44.861-76.344,68.572-163.748,68.572-252.768
				C999.982,416.186,978.803,333.236,938.732,260.107z M779.605,865.291l127.053-367.355
				c18.225-45.654,29.564-87.463,34.641-128.371c12.432,42.17,18.848,86.164,18.848,130.418
				C960.146,643.533,892.184,778.832,779.605,865.291z"/>
		</g>
	</g>
</g>
<g>
	<g>
		<path fill="#7C45E9" d="M512.277,722.137c-10.434-3.48-21.717,2.164-25.197,12.6l-2.656,7.967
			c-3.479,10.436,2.164,21.717,12.6,25.197c2.09,0.697,4.213,1.027,6.301,1.027c8.34,0,16.113-5.279,18.896-13.627l2.656-7.967
			C528.355,736.898,522.713,725.617,512.277,722.137z"/>
	</g>
</g>
<g>
	<g>
		<path fill="#7C45E9" d="M487.709,795.844c-10.438-3.488-21.717,2.164-25.197,12.598l-33.201,99.602
			c-3.479,10.436,2.164,21.717,12.6,25.195c2.09,0.699,4.213,1.029,6.301,1.029c8.34,0,16.113-5.279,18.896-13.627l33.199-99.602
			C503.787,810.604,498.145,799.322,487.709,795.844z"/>
	</g>
</g>
</svg>
